<svg width="20" height="20" viewBox="0 0 20 20" fill="none" xmlns="http://www.w3.org/2000/svg">
<path d="M8.125 13.125H16.3562L14.7438 14.7438L15.625 15.625L18.75 12.5L15.625 9.375L14.7438 10.2562L16.3562 11.875H8.125V13.125Z" fill="#00607D"/>
<path d="M13.75 8.75001V6.25001C13.7505 6.16776 13.7347 6.08622 13.7036 6.01007C13.6725 5.93392 13.6267 5.86466 13.5687 5.80626L9.19375 1.43126C9.13535 1.37333 9.06609 1.32751 8.98994 1.2964C8.91379 1.2653 8.83225 1.24953 8.75 1.25001H2.5C2.16848 1.25001 1.85054 1.38171 1.61612 1.61613C1.3817 1.85055 1.25 2.16849 1.25 2.50001V17.5C1.25 17.8315 1.3817 18.1495 1.61612 18.3839C1.85054 18.6183 2.16848 18.75 2.5 18.75H12.5C12.8315 18.75 13.1495 18.6183 13.3839 18.3839C13.6183 18.1495 13.75 17.8315 13.75 17.5V16.25H12.5V17.5H2.5V2.50001H7.5V6.25001C7.5 6.58153 7.6317 6.89947 7.86612 7.13389C8.10054 7.36831 8.41848 7.50001 8.75 7.50001H12.5V8.75001H13.75ZM8.75 6.25001V2.75626L12.2437 6.25001H8.75Z" fill="#00607D"/>
</svg>
