<svg width="65" height="78" viewBox="0 0 65 78" fill="none" xmlns="http://www.w3.org/2000/svg">
<g filter="url(#filter0_d_127_77)">
<path fill-rule="evenodd" clip-rule="evenodd" d="M22.8301 0.0689599C21.2418 0.266863 19.1804 0.981862 18.1381 1.69644C17.7915 1.93398 17.1529 2.36886 16.719 2.66271C14.8759 3.91119 13.0813 6.76755 12.4531 9.45247C12.1274 10.8455 12.2408 13.8346 12.6704 15.1709C13.1333 16.611 13.8407 17.9862 14.7193 19.1543L15.4963 20.1871L15.1553 20.4803C14.4139 21.1173 12.1156 24.5886 12.1156 25.0713C12.1156 25.1848 11.9566 25.5878 11.7624 25.9668C11.2661 26.9347 10.6567 28.796 10.3076 30.4093C9.64887 33.4539 9.66876 36.7159 10.3651 39.807C10.5576 40.661 10.715 41.4077 10.715 41.466C10.715 41.5242 9.54285 41.572 8.11005 41.572C3.97748 41.572 4.08126 41.4513 4.01725 46.334C3.96277 50.4922 4.00563 50.8573 4.62105 51.4727L5.08464 51.9363H11.2654H17.4462L18.3793 52.7278C19.4865 53.667 19.8089 54.0366 20.2548 54.8776L20.5891 55.5078L20.6592 61.9617L20.7292 68.4155L21.1331 68.9449C21.9606 70.0292 21.6673 69.9975 30.8834 70C36.0002 70.0015 39.2689 69.949 39.5884 69.8603C39.8835 69.7783 40.308 69.4878 40.592 69.1732C40.9859 68.7375 41.1044 68.4684 41.1842 67.8303C41.3243 66.7085 41.1792 65.5005 40.8778 65.28C40.5467 65.038 39.9752 65.0558 39.5983 65.3199C39.326 65.5105 39.2867 65.6643 39.2849 66.5454C39.2836 67.0995 39.2323 67.6321 39.1709 67.7291C39.0826 67.868 37.3432 67.8977 30.9445 67.8691L22.8301 67.833L22.7525 61.6704C22.6956 57.1518 22.626 55.3584 22.4916 54.9476C22.2126 54.0955 21.6872 53.1208 21.2197 52.5883C20.9884 52.3248 20.7992 52.0705 20.7992 52.0229C20.7992 51.9753 21.6415 51.9363 22.6711 51.9363C24.3573 51.9363 24.58 51.9073 24.9148 51.6439C25.4524 51.221 25.7013 50.6493 25.7013 49.8374C25.7013 49.1503 25.7119 49.131 26.0049 49.2878C26.1719 49.3772 27.1016 49.6465 28.0708 49.8861C29.6934 50.2876 30.0161 50.3216 32.144 50.3154C34.2542 50.3094 34.601 50.2713 36.1372 49.8779C37.0624 49.6409 38.0708 49.342 38.3781 49.2137C40.3189 48.4032 42.7571 46.4194 44.5658 44.1792C46.5483 41.7237 47.5678 38.5513 47.5642 34.8492C47.5626 33.2454 47.1534 30.4663 46.7752 29.4919C46.6867 29.2639 46.8609 29.2468 49.2779 29.2468C50.7424 29.2468 51.9112 29.3041 51.9568 29.3781C52.1697 29.7226 52.6242 32.4381 52.7228 33.9552C52.7834 34.8885 52.8633 35.7079 52.9001 35.7759C52.9369 35.844 53.4122 36.6559 53.9563 37.5803C56.3087 41.577 57.7747 44.2726 57.7747 44.6015C57.7747 44.8054 57.6016 45.1281 57.3653 45.3644L56.9559 45.7737H54.8185C52.4072 45.7737 51.7614 45.955 51.1579 46.8012C50.8595 47.2197 50.8372 47.4197 50.7576 50.3957C50.6835 53.1712 50.6373 53.6408 50.3693 54.3341C49.9856 55.3266 48.7398 56.5557 47.5898 57.0766C46.8171 57.4265 46.6442 57.4462 43.799 57.5083C41.0397 57.5684 40.7845 57.5957 40.3709 57.8744C39.5032 58.4591 39.287 58.9676 39.287 60.4226C39.287 61.6092 39.3146 61.7438 39.5983 61.9425C39.9784 62.2089 40.5474 62.2239 40.8857 61.9766C41.0751 61.8381 41.1597 61.5173 41.2276 60.681L41.3178 59.5695L44.259 59.4963C47.4085 59.4178 47.8838 59.3275 49.229 58.5512C50.5141 57.8094 51.9075 56.1618 52.454 54.7375C52.5808 54.4072 52.6683 53.2191 52.7224 51.096L52.8026 47.9447L55.1136 47.8683C57.1071 47.8024 57.5027 47.7509 57.9933 47.4937C58.9062 47.0152 59.7154 45.6272 59.7294 44.5155C59.7393 43.723 58.8506 41.9585 55.6107 36.3376C54.7672 34.8742 54.7294 34.7672 54.645 33.6064C54.5674 32.5407 54.3536 31.1289 54.0538 29.702L53.9581 29.2468H56.7561C59.438 29.2468 59.5738 29.2335 60.0299 28.9268C60.7774 28.4243 60.8402 28.0476 60.8402 24.0646C60.8402 20.0817 60.7774 19.705 60.0299 19.2025L59.554 18.8825H53.6564H47.7588L47.0167 18.1137C46.2347 17.3036 43.5763 15.4586 42.5083 14.9849C40.521 14.1034 38.1833 13.3041 36.906 13.0692C35.9555 12.8946 35.9396 12.8824 36.0194 12.3905C36.1716 11.4518 35.6569 8.57052 35.0398 6.90746C34.8027 6.26838 33.3553 4.17198 32.7506 3.5913C31.578 2.46578 29.3571 1.09797 27.9275 0.621071C26.3409 0.0916494 24.3648 -0.12236 22.8301 0.0689599ZM27.4233 2.61158C29.0915 3.1228 29.3404 3.27182 30.8564 4.66653C35.2942 8.74938 35.1118 15.567 30.4591 19.5274C29.3494 20.4721 28.7183 21.3853 28.2931 22.6618L27.9192 23.7845H26.5301H25.141V21.4736C25.141 19.5903 25.1772 19.1626 25.3364 19.1626C25.8675 19.1626 27.4505 18.5354 28.2257 18.0176C29.635 17.0766 30.969 15.0375 31.3103 13.3028C31.5263 12.2046 31.4157 10.4974 31.068 9.56858C30.8089 8.87599 30.7989 8.86787 30.1449 8.82557C29.5487 8.78719 29.4675 8.81884 29.317 9.1491C29.188 9.43216 29.1879 9.69813 29.3165 10.3207C29.5703 11.5489 29.5253 12.8761 29.2008 13.7433C28.795 14.8279 27.5922 16.1068 26.4773 16.6389C25.2198 17.239 25.141 17.219 25.141 16.2997V15.5375L25.9944 15.0827C27.3103 14.3813 27.9422 13.321 27.9422 11.8143C27.9422 10.9671 27.309 9.54183 26.7304 9.08664C25.0735 7.78339 22.1675 8.10973 21.1016 9.719C19.8975 11.5368 20.2992 13.8035 22.0158 14.8772C22.4588 15.1543 22.9021 15.381 23.0008 15.381C23.1271 15.381 23.1802 15.6344 23.1802 16.2365V17.0921L22.7951 16.9987C21.9635 16.797 21.1135 16.2725 20.3324 15.4795C19.1668 14.2958 18.9199 13.6814 18.9136 11.9496C18.909 10.7049 18.9517 10.4566 19.2975 9.7183C19.9838 8.25259 21.6261 7.01531 23.3043 6.69934C24.1574 6.53869 25.2912 6.67483 26.2287 7.05046C26.9667 7.34613 27.5516 7.16223 27.8029 6.55578C28.2271 5.53139 26.947 4.75294 24.6333 4.62871C22.2876 4.5028 20.6383 5.14315 18.9785 6.82413C17.7553 8.06281 17.2451 9.10653 16.9828 10.907C16.7797 12.3001 16.9671 13.5378 17.6136 15.0719C18.4066 16.9539 20.3776 18.5638 22.484 19.05L23.1802 19.2106V21.4977V23.7845H21.8053H20.4302L20.1776 22.9792C19.8006 21.7771 19.3329 20.9339 18.75 20.4056C16.7329 18.5777 15.603 17.0703 14.9196 15.2953C13.537 11.7052 14.354 8.003 17.2088 4.92101C18.2699 3.77533 19.3152 3.10179 20.6847 2.68119C22.431 2.14491 22.8596 2.08426 24.5108 2.13959C25.721 2.18006 26.3455 2.28133 27.4233 2.61158ZM25.1132 10.4514C25.8524 10.9314 26.0831 12.2347 25.5489 12.9139C25.2095 13.3453 24.5828 13.7003 24.1606 13.7003C23.3403 13.7003 22.4815 12.7807 22.4805 11.9011C22.4789 10.5549 23.9905 9.72236 25.1132 10.4514ZM37.3798 15.1772C39.7388 15.7904 42.0279 16.8766 44.0079 18.3222L44.6792 18.8125L42.4828 18.8825C39.9212 18.9641 39.643 19.0779 39.287 20.1888C39.1309 20.6755 39.0228 20.8219 38.8668 20.7569C38.2042 20.4807 35.3211 19.673 34.5047 19.5349L33.546 19.3727L34.0825 18.5652C34.7282 17.5937 35.1355 16.7068 35.4321 15.6261C35.5537 15.1833 35.7331 14.8208 35.8307 14.8208C35.9284 14.8208 36.6254 14.9811 37.3798 15.1772ZM58.7551 23.9946V27.1459H49.9314H41.1077V23.9946V20.8433H49.9314H58.7551V23.9946ZM34.0411 21.4133C35.2656 21.5837 37.154 22.2089 38.3416 22.8372L39.1469 23.2634V25.4892C39.1469 29.037 39.3305 29.2454 42.4561 29.2463L44.4347 29.2468L44.7204 29.9121C44.8777 30.2781 45.1483 31.1131 45.3218 31.7679C45.7595 33.4194 45.7658 36.3743 45.3351 37.9644C44.617 40.6155 43.6193 42.3882 41.808 44.2311C39.937 46.1348 38.5384 47.0376 36.303 47.7841C34.6407 48.3393 33.5922 48.4745 31.5396 48.398C29.5666 48.3246 28.7399 48.1493 26.896 47.4131L25.7713 46.9642L25.7013 44.8565C25.5972 41.7228 25.4366 41.572 22.2067 41.572H20.2437L19.8838 40.8619C18.9208 38.9611 18.2885 35.8957 18.4838 34.0728C18.5681 33.2851 18.6174 33.1622 18.8156 33.2444C18.9437 33.2975 19.2583 33.391 19.5147 33.4525C19.7712 33.5138 19.9982 33.5854 20.0194 33.6115C20.0404 33.6374 20.1985 34.2772 20.3705 35.0332C20.853 37.1527 21.5414 37.7901 23.3483 37.7907L24.3707 37.7911L24.7852 38.5841C26.2217 41.3333 29.0913 43.1126 32.0882 43.1126C33.2548 43.1126 34.8975 42.7401 35.2398 42.3978C35.7597 41.8779 35.4349 40.5916 34.7837 40.5916C34.6267 40.5916 34.1479 40.6934 33.7199 40.8178C32.4677 41.1818 30.7283 41.0413 29.6051 40.4851C28.4764 39.9263 27.7977 39.3626 27.0734 38.3821L26.5006 37.6068L26.8636 37.3424C27.4519 36.9138 27.7901 36.2199 28.0545 34.8994L28.303 33.6587L28.9176 33.4626C29.5875 33.2489 30.6616 32.2815 30.8868 31.689C31.0919 31.1497 31.0515 30.0485 30.8052 29.4589C30.6851 29.1715 30.6274 28.896 30.6769 28.8465C30.8826 28.6408 33.3437 28.7612 34.0663 29.0125C35.4303 29.4869 37.2561 31.2188 37.8235 32.5767C38.4298 34.028 38.3717 36.0315 37.6822 37.4407C37.2533 38.3173 37.2317 38.8165 37.6063 39.191C38.7651 40.3498 40.2665 37.9351 40.2623 34.9192C40.2601 33.3501 40.1098 32.6791 39.4626 31.3477C39.0802 30.5614 38.6683 30.0139 37.8239 29.1702C36.1004 27.4482 34.5255 26.7395 32.2321 26.6539L31.1297 26.6127L30.8848 25.8895C30.7501 25.4917 30.442 24.9619 30.1998 24.7121L29.7598 24.2581L30.0452 23.4281C30.3467 22.5516 30.9207 21.6188 31.2919 21.4017C31.5913 21.2266 32.7336 21.2314 34.0411 21.4133ZM17.6424 22.0936C17.7448 22.2918 17.9616 22.8593 18.1241 23.3546C18.414 24.2382 18.4146 24.2607 18.1552 24.545C17.3513 25.4264 17.0945 26.8563 17.5539 27.8947L17.8443 28.5511L17.4426 29.7743C16.8066 31.7107 16.5975 32.984 16.5975 34.9192C16.5975 36.8705 16.7965 38.0639 17.4384 39.9631C17.6692 40.6458 17.858 41.2871 17.858 41.3882C17.858 41.533 17.3253 41.572 15.3428 41.572H12.8278L12.5474 40.6266C12.393 40.1067 12.1895 39.2085 12.095 38.6308C11.8696 37.2529 11.8755 32.703 12.1047 31.2777C12.5838 28.2962 14.3088 24.6445 16.4239 22.1341C17.0979 21.3341 17.2475 21.3292 17.6424 22.0936ZM43.0788 23.4533C42.9191 23.6562 42.7884 23.9313 42.7884 24.0646C42.7884 24.198 42.9191 24.4731 43.0788 24.676C43.3656 25.0407 43.3903 25.0451 45.1819 25.0451H46.9947L47.2284 24.5549C47.4468 24.097 47.4468 24.0323 47.2284 23.5744L46.9947 23.0842H45.1819C43.3903 23.0842 43.3656 23.0886 43.0788 23.4533ZM49.0194 23.3662C48.879 23.5212 48.7643 23.8355 48.7643 24.0646C48.7643 24.2938 48.879 24.6081 49.0194 24.7631C49.2628 25.032 49.4446 25.0451 52.9427 25.0451C57.0542 25.0451 57.0744 25.0402 57.0744 24.0403C57.0744 23.0998 57.0068 23.0842 52.9183 23.0842C49.4446 23.0842 49.2626 23.0974 49.0194 23.3662ZM28.8962 26.171C29.2491 26.4997 29.2621 26.5821 29.0396 27.0706C28.7698 27.6628 28.2177 27.7277 23.8599 27.68C20.146 27.6394 19.8258 27.6163 19.5531 27.3693C19.1999 27.0494 19.1715 26.4938 19.4904 26.1416C19.7056 25.9036 20.0384 25.8854 24.1559 25.8854C28.4243 25.8854 28.6012 25.8961 28.8962 26.171ZM28.7904 29.9253C29.0061 30.0999 29.1093 30.3337 29.1093 30.6474C29.1093 30.9611 29.0061 31.1949 28.7904 31.3696C28.4957 31.6081 28.1408 31.6278 24.1451 31.6278C20.0055 31.6278 19.8068 31.6158 19.5387 31.3477C19.2603 31.0693 19.1691 30.4358 19.3657 30.1453C19.6548 29.7183 20.0957 29.6754 24.2501 29.6712C28.1475 29.6673 28.4959 29.6867 28.7904 29.9253ZM26.0314 34.5233C25.9237 35.0373 25.7661 35.5415 25.6812 35.6437C25.5734 35.7736 25.1378 35.8296 24.2353 35.8296C22.7298 35.8296 22.6198 35.7569 22.3638 34.5934C22.2736 34.183 22.1998 33.7892 22.1998 33.7181C22.1998 33.6449 23.0753 33.5886 24.2136 33.5886H26.2273L26.0314 34.5233ZM23.7081 46.7892L23.6704 49.9055L14.8817 49.9416L6.09306 49.9776V46.8253V43.6729H14.9194H23.7458L23.7081 46.7892ZM8.05388 46.0539C7.63679 46.471 7.68035 47.2206 8.14282 47.5843C8.46132 47.835 8.70558 47.8743 9.92857 47.8727C10.7077 47.8717 11.482 47.8341 11.6489 47.7893C12.2846 47.6189 12.4213 46.2274 11.8332 45.9127C11.6905 45.8362 10.8448 45.7737 9.95392 45.7737C8.5207 45.7737 8.30165 45.8061 8.05388 46.0539ZM13.9363 46.0539C13.559 46.4312 13.5663 47.1896 13.9508 47.5378C14.2202 47.7819 14.532 47.8082 17.6158 47.8469C19.907 47.8756 21.1096 47.8381 21.3709 47.7298C22.1172 47.4207 22.2074 46.2927 21.5155 45.9223C21.341 45.8289 19.9339 45.7737 17.7272 45.7737C14.4032 45.7737 14.2016 45.7886 13.9363 46.0539Z" fill="white"/>
</g>
<defs>
<filter id="filter0_d_127_77" x="0" y="0" width="64.8401" height="78" filterUnits="userSpaceOnUse" color-interpolation-filters="sRGB">
<feFlood flood-opacity="0" result="BackgroundImageFix"/>
<feColorMatrix in="SourceAlpha" type="matrix" values="0 0 0 0 0 0 0 0 0 0 0 0 0 0 0 0 0 0 127 0" result="hardAlpha"/>
<feOffset dy="4"/>
<feGaussianBlur stdDeviation="2"/>
<feComposite in2="hardAlpha" operator="out"/>
<feColorMatrix type="matrix" values="0 0 0 0 0 0 0 0 0 0 0 0 0 0 0 0 0 0 0.15 0"/>
<feBlend mode="normal" in2="BackgroundImageFix" result="effect1_dropShadow_127_77"/>
<feBlend mode="normal" in="SourceGraphic" in2="effect1_dropShadow_127_77" result="shape"/>
</filter>
</defs>
</svg>
