<svg width="65" height="68" viewBox="0 0 65 68" fill="none" xmlns="http://www.w3.org/2000/svg">
<g filter="url(#filter0_d_127_80)">
<path fill-rule="evenodd" clip-rule="evenodd" d="M28.2611 0.272549C27.9391 0.442408 27.6459 0.718356 27.4826 1.00521L27.2208 1.46532L27.2188 15.8547C27.2178 23.7689 27.1773 30.2434 27.129 30.2426C27.0807 30.2418 26.54 30.1344 25.9275 30.004C24.6237 29.7266 22.0813 29.593 21.0304 29.7468L20.2948 29.8545L20.0639 29.3323C19.7596 28.6445 18.9242 27.4926 18.2893 26.8854C15.614 24.3268 11.7562 23.7994 8.40231 25.5337C7.82603 25.8316 7.26335 26.2743 6.5124 27.0204C5.59476 27.9323 5.3677 28.2403 4.91052 29.1928C4.02289 31.0423 3.78363 32.8965 4.19544 34.7342C4.40012 35.6475 4.96468 36.9747 5.45773 37.7016C5.90224 38.3572 7.13651 39.5791 7.72803 39.9493C8.12566 40.1983 8.22026 40.3175 8.1661 40.5013C7.76906 41.8479 7.60107 43.0901 7.59521 44.7214C7.58829 46.685 7.73389 47.7113 8.25214 49.3518C8.98785 51.6811 10.0866 53.5253 11.8049 55.3155C14.5991 58.2267 18.0614 59.7939 22.1177 59.9836C27.4271 60.2317 32.3939 57.6558 35.4551 53.0662L36.0169 52.2239L47.8819 52.1652C57.3817 52.1183 59.8008 52.0759 60.0171 51.9526C60.1655 51.868 60.3895 51.6306 60.5148 51.4251C60.7358 51.0626 60.7426 50.741 60.7429 40.472C60.7434 30.0485 60.74 29.889 60.5089 29.658C60.1598 29.3089 59.5324 29.3453 59.228 29.7324C58.9864 30.0396 58.985 30.0999 58.985 40.2241V50.4069H47.9521H36.9193L36.9766 50.1431C37.008 49.998 37.1665 49.431 37.3286 48.8829C37.4907 48.3349 37.6896 47.3985 37.7705 46.8022L37.9178 45.7178H39.0486H40.1795L41.2372 47.2711C42.1021 48.5411 42.3684 48.8499 42.698 48.9643C43.2147 49.1436 49.7052 49.1701 50.3344 48.9955C50.8917 48.8407 51.2481 48.3892 51.2481 47.8382C51.2481 47.5129 51.1096 47.2187 50.6668 46.6037L50.0856 45.7964L50.4004 45.633C50.8 45.4257 50.8928 45.2759 50.8928 44.8387C50.8928 44.4014 50.8 44.2516 50.4004 44.0443L50.0856 43.8809L50.6668 43.0736C51.1096 42.4586 51.2481 42.1644 51.2481 41.8391C51.2481 41.2881 50.8917 40.8366 50.3344 40.6819C49.7055 40.5072 43.216 40.5337 42.693 40.713C42.3557 40.8287 42.103 41.1218 41.2336 42.4062L40.1821 43.9595H39.0499H37.9178L37.7705 42.8751C37.6896 42.2788 37.4914 41.3424 37.3302 40.7944C37.169 40.2464 37.0124 39.7123 36.9821 39.6076C36.9392 39.4592 37.043 39.3999 37.454 39.3382C38.0766 39.2449 38.5499 38.8296 38.6516 38.2875C38.6898 38.0838 38.7043 37.0038 38.6838 35.8877L38.6464 33.8583L38.2636 33.5166L37.8807 33.1747H35.5605C33.7837 33.1747 33.1889 33.2123 33.0211 33.335C32.8254 33.4781 32.7328 33.4386 32.1489 32.963C31.3467 32.3096 30.5056 31.7663 29.6357 31.3397L28.9753 31.0158V19.2006V7.38519H43.9802H58.985V16.8646C58.985 26.2772 58.9868 26.3463 59.228 26.6529C59.5324 27.04 60.1598 27.0765 60.5089 26.7274C60.7405 26.4958 60.7434 26.3366 60.7434 14.0746C60.7434 5.58567 60.7039 1.55195 60.6187 1.3264C60.449 0.877314 59.9432 0.356599 59.487 0.161419C59.1732 0.027079 56.5609 0 43.9437 0H28.7778L28.2611 0.272549ZM34.2505 3.6926V5.62681H31.6129H28.9753V3.77078C28.9753 2.74987 29.0105 1.87947 29.0535 1.83657C29.0964 1.79355 30.2833 1.75838 31.6911 1.75838H34.2505V3.6926ZM58.9586 3.7219L58.9909 5.62681H47.4999H36.0089V3.69201V1.75721L47.4676 1.7871L58.9264 1.81699L58.9586 3.7219ZM12.1386 6.4767C10.5991 8.02114 10.5898 8.03356 10.5147 8.67467C10.4732 9.02927 10.4556 12.2643 10.4758 15.8639L10.5124 22.4082L10.9502 22.8095L11.3882 23.2106H18.0247H24.6615L25.06 22.812L25.4586 22.4135V18.9618C25.4586 15.7667 25.4426 15.4957 25.2442 15.3161C24.9367 15.0378 24.2561 15.0661 23.9821 15.3686C23.7773 15.5946 23.7558 15.8578 23.7221 18.5337L23.6853 21.4522H18.0074H12.3294V15.0903V8.72836L13.3574 7.7051L14.3855 6.68184H19.035H23.6846L23.7218 9.42456C23.7555 11.9271 23.7784 12.1888 23.9821 12.4138C24.2698 12.7314 24.9899 12.7494 25.2646 12.4459C25.4355 12.2571 25.4586 11.8369 25.4586 8.92014V5.60876L25.1159 5.26611L24.7733 4.92346H19.2302H13.6871L12.1386 6.4767ZM14.8287 8.81405C14.265 9.0866 14.2333 10.0173 14.7777 10.3087C15.0936 10.4777 20.9359 10.4777 21.2518 10.3087C21.814 10.0078 21.7612 9.07804 21.1664 8.80713C20.7843 8.63305 15.1905 8.63915 14.8287 8.81405ZM33.2398 9.6637C32.5344 9.97071 32.4921 10.1355 32.4921 12.575C32.4921 14.9795 32.5624 15.308 33.1336 15.5681C33.3373 15.6609 34.1894 15.7082 35.6608 15.7082H37.8807L38.2636 15.3664L38.6464 15.0245L38.6829 12.8593C38.7393 9.50533 38.7273 9.49243 35.573 9.49982C34.1819 9.5031 33.4986 9.55104 33.2398 9.6637ZM40.2823 10.4864C40.124 10.6446 39.9945 10.9107 39.9945 11.0778C39.9945 11.2448 40.124 11.5109 40.2823 11.6692L40.57 11.957H47.7314H54.8928L55.1805 11.6692C55.5473 11.3025 55.5473 10.8531 55.1805 10.4864L54.8928 10.1986H47.7314H40.57L40.2823 10.4864ZM36.9212 12.631L36.9544 13.9498H35.6024H34.2505V12.5978V11.2459L35.5693 11.2791L36.888 11.3122L36.9212 12.631ZM14.9444 11.7208C14.5681 11.8766 14.2865 12.3613 14.3849 12.6839C14.5951 13.3728 14.5462 13.3637 18.0148 13.3637C21.0601 13.3637 21.2116 13.3531 21.4157 13.1277C21.7083 12.8044 21.6878 12.237 21.3722 11.9211C21.1225 11.6713 21.0297 11.6632 18.1583 11.6392C16.532 11.6255 15.0858 11.6623 14.9444 11.7208ZM40.5913 13.3714C39.9814 13.6215 39.832 14.1805 40.2375 14.6959L40.4804 15.0048H44.9265C49.2163 15.0048 49.3807 14.9966 49.607 14.7704C49.9032 14.4742 49.9079 13.9407 49.6174 13.5818L49.3935 13.3051L45.1336 13.2803C42.538 13.2653 40.7634 13.3008 40.5913 13.3714ZM14.7134 14.8263C14.5774 14.9215 14.4327 15.133 14.3917 15.2961C14.306 15.6376 14.5687 16.2289 14.855 16.3387C14.9593 16.3787 16.3987 16.4099 18.0537 16.4078C21.2276 16.4039 21.2877 16.3943 21.5808 15.844C21.7558 15.5157 21.5713 14.9484 21.2302 14.7659C21.1108 14.702 19.7052 14.6532 17.9899 14.6532C15.508 14.6532 14.9158 14.6845 14.7134 14.8263ZM33.3494 17.4739C33.1439 17.536 32.867 17.725 32.7339 17.8941C32.509 18.18 32.4921 18.3565 32.4921 20.4189C32.4921 22.7637 32.5706 23.1734 33.0718 23.4415C33.2044 23.5126 34.2413 23.5623 35.589 23.5623H37.8807L38.2636 23.2204L38.6464 22.8786L38.683 20.7037C38.7384 17.4003 38.7544 17.4185 35.7744 17.3845C34.6461 17.3716 33.5549 17.4118 33.3494 17.4739ZM14.6529 17.9384C14.3686 18.2227 14.3133 18.3564 14.3739 18.6124C14.5258 19.2546 14.7798 19.3422 16.4908 19.3422C17.8013 19.3422 18.0877 19.3096 18.3019 19.1361C18.6838 18.8268 18.6639 18.2038 18.2611 17.8573C17.9646 17.6023 17.844 17.5838 16.4753 17.5838H15.0075L14.6529 17.9384ZM40.5003 18.1693C39.974 18.3843 39.8506 19.0103 40.2375 19.5022L40.4804 19.8111H47.7314H54.9824L55.2252 19.5022C55.5282 19.1171 55.5345 18.7465 55.2442 18.3881L55.0201 18.1113L47.8883 18.0881C43.9171 18.0751 40.643 18.1111 40.5003 18.1693ZM36.9212 20.4851L36.9544 21.8039H35.6024H34.2505V20.4519V19.1L35.5693 19.1332L36.888 19.1663L36.9212 20.4851ZM40.2375 21.5267C39.8209 22.0562 39.9834 22.6096 40.6272 22.8544C41.0767 23.0253 48.7475 23.0184 49.2403 22.8466C49.8608 22.6303 50.0531 21.8984 49.607 21.4522C49.3807 21.226 49.2163 21.2178 44.9265 21.2178H40.4804L40.2375 21.5267ZM32.8347 25.6633L32.4921 26.006V28.3685V30.7311L32.8347 31.0737L33.1774 31.4164H35.5291H37.8807L38.2636 31.0743L38.6464 30.7322V28.3859V26.0394L38.3021 25.6801L37.9578 25.3207H35.5676H33.1774L32.8347 25.6633ZM40.522 26.0422C39.9504 26.3547 39.8424 26.854 40.2375 27.3563L40.4804 27.6652H47.7314H54.9824L55.2252 27.3563C55.3589 27.1864 55.4683 26.9779 55.4683 26.8929C55.4683 26.5829 55.201 26.164 54.9223 26.0369C54.5243 25.8557 40.854 25.8606 40.522 26.0422ZM13.6852 26.3838C15.6387 26.7357 17.5229 28.1906 18.4167 30.0373C20.8991 35.1658 16.2821 40.8034 10.7568 39.3903C9.59859 39.094 8.86417 38.6907 7.93856 37.8425C6.58426 36.6016 5.9067 35.1779 5.80084 33.3506C5.68585 31.3653 6.30691 29.711 7.6986 28.2956C9.30307 26.6639 11.4443 25.98 13.6852 26.3838ZM36.9467 28.3685V29.658H35.5986H34.2505V28.3685V27.079H35.5986H36.9467V28.3685ZM11.8062 27.8948C11.6918 28.0212 11.572 28.3583 11.5397 28.644C11.4836 29.1427 11.4629 29.1665 11.0291 29.2359C10.1384 29.3783 9.28665 30.4727 9.28665 31.475C9.28665 32.3559 9.94241 33.3329 10.7468 33.6503C10.9402 33.7266 11.6777 33.8223 12.3855 33.8629C13.6695 33.9366 13.6729 33.9375 13.7899 34.2714C13.8908 34.5592 13.8688 34.6371 13.6328 34.8282C13.3922 35.0229 13.1531 35.0504 11.6921 35.0504C10.1018 35.0504 10.014 35.0628 9.77079 35.3216C9.45804 35.6545 9.44385 36.1076 9.73469 36.4668C9.91275 36.6867 10.0959 36.746 10.7174 36.7856L11.4813 36.8343L11.5448 37.3076C11.6232 37.892 11.9654 38.2545 12.4386 38.2545C12.9747 38.2545 13.2672 37.9247 13.2672 37.3203C13.2672 36.8623 13.2983 36.8064 13.5895 36.7428C14.4841 36.5476 15.0995 36.0515 15.4298 35.2592C15.8839 34.1709 15.3966 32.9023 14.3121 32.349C13.9563 32.1675 13.6227 32.1197 12.7117 32.1197C11.3848 32.1197 11.0013 31.961 11.0625 31.437C11.1208 30.9379 11.5031 30.8339 13.2879 30.832C14.8796 30.8302 14.8931 30.828 15.1342 30.5214C15.4125 30.1677 15.4302 30.0199 15.2438 29.6107C15.0825 29.2567 14.5994 29.0719 13.8358 29.0719H13.2672V28.603C13.2672 28.2903 13.189 28.0559 13.0327 27.8996C12.7253 27.5922 12.0822 27.5897 11.8062 27.8948ZM40.2375 29.3808C40.1039 29.5506 39.9945 29.8144 39.9945 29.9669C39.9945 30.2916 40.345 30.679 40.7242 30.7735C40.8709 30.8101 42.8815 30.8246 45.1922 30.8057L49.3935 30.7716L49.6174 30.4949C49.9079 30.136 49.9032 29.6025 49.607 29.3063C49.3807 29.0801 49.2163 29.0719 44.9265 29.0719H40.4804L40.2375 29.3808ZM24.4622 31.5377C26.5763 31.8383 28.3936 32.5271 30.1233 33.6836C31.2554 34.4404 32.7112 35.8023 33.4641 36.8087C34.8313 38.6364 35.769 40.9883 36.0696 43.344L36.1481 43.9595H34.6853H33.2224L33.1413 43.2854C33.0326 42.3842 32.4541 40.6684 31.961 39.785C30.583 37.3164 28.2501 35.4683 25.5123 34.6758C24.7116 34.4441 24.3135 34.4057 22.7038 34.4057L20.8282 34.4056V32.9749V31.5441L21.1799 31.499C21.9136 31.4049 23.6736 31.4255 24.4622 31.5377ZM40.5913 33.8886C39.9823 34.1321 39.8318 34.6946 40.2375 35.2104L40.4804 35.5193H47.7314H54.9824L55.2252 35.2104C55.3589 35.0405 55.4683 34.832 55.4683 34.747C55.4683 34.4003 55.1806 33.9997 54.8485 33.884C54.3885 33.7236 40.993 33.7281 40.5913 33.8886ZM36.9212 36.2519L36.888 37.5707L36.5102 37.6072C36.1637 37.6407 36.0964 37.5872 35.6997 36.9624C35.4618 36.5878 35.0352 35.978 34.752 35.6072L34.2368 34.9331H35.5955H36.9544L36.9212 36.2519ZM24.6735 36.2911C27.7451 36.9672 30.4233 39.5643 31.2064 42.6258C31.5735 44.0615 31.6671 43.9595 29.9821 43.9595H28.5271L28.4465 43.4833C28.201 42.0294 26.8334 40.3172 25.3247 39.5747C23.1349 38.4969 20.6057 38.8452 18.8288 40.4691C16.7948 42.328 16.2814 44.9778 17.4812 47.4234C18.2619 49.0143 19.569 50.0768 21.3072 50.5329C23.4349 51.0912 25.8741 50.2971 27.2356 48.6028C27.8006 47.8995 28.341 46.8189 28.4499 46.1743L28.5271 45.7178H29.9821C31.2903 45.7178 31.437 45.7386 31.4353 45.923C31.4307 46.4674 31.0253 47.759 30.5537 48.731C29.9451 49.9856 29.9102 50.2954 30.3393 50.6328C30.9518 51.1147 31.3909 50.9166 31.9482 49.9071C32.4846 48.9356 32.9027 47.7319 33.089 46.6236L33.2412 45.7178H34.6946H36.1481L36.0696 46.3333C35.6587 49.553 34.3076 52.2379 31.9482 54.5229C26.858 59.4524 18.7933 59.4913 13.5681 54.6116C10.1526 51.4219 8.65024 46.6914 9.58945 42.0839C9.68792 41.6003 9.80631 41.1655 9.85227 41.1178C9.89834 41.07 10.303 41.1086 10.7516 41.2036C11.2004 41.2987 11.8372 41.3773 12.1671 41.3785L12.7667 41.3805L12.5391 42.1718C12.2411 43.207 12.1351 45.3228 12.323 46.4871C12.6936 48.7847 13.7458 50.7752 15.452 52.4068C16.7573 53.6551 17.8881 54.3243 19.7145 54.9298C20.6412 55.2369 20.8462 55.2605 22.6452 55.2658C24.8754 55.2726 25.6895 55.0995 27.3676 54.262C28.5838 53.6551 28.8581 53.4072 28.8581 52.9152C28.8581 52.513 28.4287 52.0504 28.051 52.0457C27.9469 52.0443 27.3869 52.283 26.8067 52.576C25.2464 53.364 24.1124 53.6114 22.3611 53.5459C21.2236 53.5035 20.7611 53.4303 20.0076 53.1741C17.6531 52.3732 15.6465 50.5578 14.681 48.3554C13.9703 46.734 13.7824 44.5751 14.2003 42.832C14.5291 41.4609 14.7467 41.0607 15.2513 40.8997C15.4818 40.8262 16.0395 40.5755 16.4908 40.3427C17.5182 39.8129 19.1554 38.2263 19.7143 37.219C19.929 36.8322 20.1207 36.4953 20.1404 36.4704C20.1602 36.4454 20.4549 36.3576 20.7954 36.2752C21.6777 36.0615 23.6677 36.0697 24.6735 36.2911ZM40.2375 37.2348C39.9346 37.6198 39.9283 37.9905 40.2185 38.349L40.4426 38.6257L44.8501 38.6591L49.2578 38.6925L49.5497 38.4006C49.9229 38.0274 49.9315 37.5203 49.5702 37.1808C49.3015 36.9284 49.2553 36.926 44.8896 36.926H40.4804L40.2375 37.2348ZM23.7341 40.8515C25.1422 41.2183 26.2819 42.3161 26.6865 43.6957L26.7639 43.9595H24.582C22.4216 43.9595 22.3972 43.9623 22.1124 44.2473C21.9541 44.4055 21.8246 44.6716 21.8246 44.8387C21.8246 45.0057 21.9541 45.2718 22.1124 45.4301C22.3972 45.715 22.4216 45.7178 24.582 45.7178H26.7639L26.6834 45.9816C26.3364 47.1176 25.4694 48.0995 24.371 48.6003C23.768 48.8752 23.4786 48.9336 22.7013 48.9372C21.8708 48.9411 21.67 48.8966 20.9799 48.5569C17.5201 46.8538 17.9873 41.8383 21.6991 40.8374C22.4263 40.6414 22.9411 40.6449 23.7341 40.8515ZM48.9036 42.4048C48.9036 42.4523 48.6794 42.8203 48.4054 43.2226L47.9072 43.9538L45.1162 43.9567C42.9157 43.9589 42.3431 43.9285 42.4099 43.8129C42.4566 43.7324 42.7048 43.3631 42.9614 42.9924L43.428 42.3183H46.1658C47.6716 42.3183 48.9036 42.3572 48.9036 42.4048ZM48.4054 46.4547C48.6794 46.857 48.9036 47.225 48.9036 47.2725C48.9036 47.3201 47.6716 47.359 46.1658 47.359H43.428L42.9614 46.685C42.7048 46.3142 42.4566 45.945 42.4099 45.8644C42.3431 45.7488 42.9157 45.7184 45.1162 45.7207L47.9072 45.7235L48.4054 46.4547Z" fill="white"/>
</g>
<defs>
<filter id="filter0_d_127_80" x="0" y="0" width="64.7434" height="68" filterUnits="userSpaceOnUse" color-interpolation-filters="sRGB">
<feFlood flood-opacity="0" result="BackgroundImageFix"/>
<feColorMatrix in="SourceAlpha" type="matrix" values="0 0 0 0 0 0 0 0 0 0 0 0 0 0 0 0 0 0 127 0" result="hardAlpha"/>
<feOffset dy="4"/>
<feGaussianBlur stdDeviation="2"/>
<feComposite in2="hardAlpha" operator="out"/>
<feColorMatrix type="matrix" values="0 0 0 0 0 0 0 0 0 0 0 0 0 0 0 0 0 0 0.15 0"/>
<feBlend mode="normal" in2="BackgroundImageFix" result="effect1_dropShadow_127_80"/>
<feBlend mode="normal" in="SourceGraphic" in2="effect1_dropShadow_127_80" result="shape"/>
</filter>
</defs>
</svg>
