<svg width="76" height="68" viewBox="0 0 76 68" fill="none" xmlns="http://www.w3.org/2000/svg">
<g filter="url(#filter0_d_127_701)">
<path fill-rule="evenodd" clip-rule="evenodd" d="M5.67449 0.193727C5.0171 0.428084 4.5521 0.861745 4.24511 1.52697C4.00956 2.03725 4 3.02275 4 26.6889C4 50.3016 4.01009 51.3418 4.24378 51.8562C4.51758 52.4593 5.16435 53.0622 5.69733 53.2117C5.89252 53.2666 14.4858 53.3113 24.7935 53.3113C43.0369 53.3113 43.5423 53.3046 43.8143 53.0584C44.0047 52.886 44.0938 52.6452 44.0938 52.3025C44.0938 51.311 45.6565 51.386 25.0016 51.386C12.5015 51.386 6.4162 51.3414 6.24266 51.2486C5.99038 51.1135 5.98586 50.7361 5.98586 30.0037V8.89629H37.9859H69.986V30.0037C69.986 50.7361 69.9815 51.1135 69.7292 51.2486C69.5879 51.3241 68.8279 51.386 68.0403 51.386H66.6082L61.8241 46.6244C57.4691 42.2898 56.9863 41.8496 56.4424 41.7179C56.0536 41.6237 55.6594 41.6156 55.3138 41.6946L54.7827 41.816L53.1671 40.2074L51.5517 38.5987L51.8875 38.0667C52.3199 37.3818 53.2557 35.4482 53.2557 35.2398C53.2557 35.1244 53.7746 35.0666 55.1052 35.0336C56.7323 34.9932 56.9996 34.9542 57.3293 34.7093C58.0092 34.2044 58.052 33.8315 58.0088 28.7974C57.9719 24.4875 57.9532 24.1757 57.7164 23.9143C57.3917 23.5556 56.5749 23.5339 56.2657 23.8758C56.0743 24.0872 56.0434 24.6581 56.0127 28.5563L55.9777 32.9959H54.7163H53.4549L53.4207 24.332L53.3866 15.6681H54.7153H56.0441V18.0376C56.0441 20.1644 56.0689 20.4295 56.2869 20.6268C56.6352 20.942 57.406 20.9099 57.7164 20.5673C57.941 20.3195 57.9744 20.0255 58.0139 17.9532C58.0687 15.0789 57.9994 14.549 57.5035 14.0531L57.1268 13.6764H54.756C51.3146 13.6764 51.3974 13.5775 51.3953 17.6863L51.3938 20.5146L51.0364 20.0498C50.2908 19.0807 48.5507 17.3954 47.556 16.6792C45.0127 14.848 42.1721 13.8685 38.9732 13.7194C34.3444 13.5039 30.1612 15.1202 26.8951 18.3864C23.9359 21.3455 22.3934 24.9002 22.2264 29.1453C21.7867 40.3189 32.8302 48.5016 43.4448 44.8673C44.3598 44.5539 46.2052 43.6688 46.7591 43.2775L47.1008 43.0363L48.7234 44.6627L50.3458 46.2891L50.2564 46.8478C50.1072 47.7813 50.4346 48.3714 51.9267 49.8578C52.6576 50.586 53.2557 51.2277 53.2557 51.2839C53.2557 51.3401 51.9544 51.386 50.3641 51.386C47.0461 51.386 46.8822 51.4292 46.8822 52.3025C46.8822 52.645 46.9713 52.8862 47.1615 53.0584C47.4211 53.2934 47.7241 53.314 51.4436 53.3496L55.4466 53.3877L58.6333 56.5536C62.031 59.9291 62.3197 60.1382 63.3224 59.9523C64.0888 59.8103 64.4796 59.5032 66.4899 57.4627C68.5192 55.4032 68.6315 55.2081 68.4937 53.9847L68.4293 53.4132L69.3305 53.3376C70.6644 53.2258 71.3404 52.7872 71.7722 51.7536C71.9553 51.3156 71.9775 48.5693 71.9748 26.6599C71.972 3.07878 71.9618 2.03579 71.7281 1.52153C71.4307 0.866658 70.8083 0.322125 70.1479 0.138623C69.8175 0.0468716 62.4429 0.00119509 47.8628 0.000796751L26.0716 0L25.7217 0.275254C25.2832 0.620085 25.2419 1.33073 25.6374 1.72615C25.9008 1.98958 26.0799 1.99171 47.6877 1.99171C62.4505 1.99171 69.5551 2.03605 69.7292 2.12913C69.9681 2.257 69.986 2.42882 69.986 4.58597V6.90524L43.4631 6.87165L16.9402 6.83819L16.904 4.41495L16.8679 1.99171H19.46C21.8753 1.99171 22.0705 1.97352 22.3179 1.72615C22.7133 1.33073 22.672 0.620085 22.2335 0.275254C21.8884 0.00371809 21.7788 0.000132863 14.0343 0.00584242C7.73405 0.0104897 6.08425 0.0475353 5.67449 0.193727ZM14.8822 4.44814V6.90458H10.434H5.98586V4.58756C5.98586 2.52084 6.01096 2.25581 6.21823 2.13511C6.36243 2.05119 8.05073 1.99821 10.6664 1.99569L14.8822 1.99171V4.44814ZM61.4881 3.58507C61.0927 3.98049 61.1339 4.69113 61.5724 5.03596C61.8865 5.28307 62.1027 5.31122 63.6894 5.31122C65.3351 5.31122 65.4796 5.29064 65.7892 5.01246C66.2695 4.58092 66.3014 4.01661 65.8698 3.58507C65.6287 3.34394 65.4273 3.31951 63.6789 3.31951C61.9306 3.31951 61.7292 3.34394 61.4881 3.58507ZM9.63732 12.1343C8.88645 12.4617 8.84064 12.7085 8.84064 16.4297V19.8062L9.2743 20.1936L9.70796 20.581H13.1684H16.6287L17.0169 20.1928L17.405 19.8047V16.3008C17.405 12.927 17.3946 12.786 17.1267 12.4982C16.9736 12.334 16.7008 12.1434 16.5205 12.0749C15.9959 11.8755 10.1147 11.9262 9.63732 12.1343ZM15.4133 16.2656V18.5893H13.0896H10.766V16.3542C10.766 15.1248 10.8058 14.0791 10.8545 14.0305C10.9031 13.9818 11.9488 13.9419 13.1782 13.9419H15.4133V16.2656ZM40.9423 15.9408C45.2684 16.8225 48.7672 19.5032 50.8247 23.5128L51.3304 24.498L51.3989 29.4109L51.4675 34.3237L51.093 35.2742C50.5679 36.6061 49.326 38.4312 48.1329 39.6242C43.3396 44.4176 35.9424 45.0912 30.2183 41.2557C29.1308 40.527 27.295 38.6481 26.5061 37.4567C24.2199 34.0035 23.571 29.4806 24.7999 25.5634C26.3739 20.5458 30.6103 16.8015 35.773 15.8647C37.2627 15.5944 39.3966 15.6259 40.9423 15.9408ZM60.3334 18.4506C60.053 18.6217 59.8591 18.8803 59.7615 19.2136C59.6589 19.5643 59.6264 21.9125 59.6548 26.9187L59.6955 34.1197L60.1296 34.5536L60.5637 34.9876H62.9487H65.3337L65.7677 34.5536L66.2018 34.1197L66.2393 26.9492C66.2648 22.101 66.2303 19.6058 66.133 19.2444C65.8818 18.3111 65.521 18.1918 62.9487 18.1918C61.0109 18.1918 60.7088 18.2219 60.3334 18.4506ZM35.3896 18.6396C32.099 19.5122 29.3803 21.7504 27.9509 24.7635C27.1813 26.3857 26.9614 27.2742 26.8714 29.1259C26.749 31.64 27.2562 33.6755 28.5036 35.6769C32.1485 41.5248 39.8547 42.8801 45.3134 38.633C46.2635 37.8939 47.5431 36.4311 48.0881 35.4613C48.2762 35.1269 48.4874 34.9212 48.643 34.9212C48.7812 34.9212 49.069 34.7466 49.2825 34.5331L49.6706 34.145L49.6677 28.8568C49.665 24.0468 49.6439 23.5429 49.4353 23.2853C49.0938 22.8637 48.6987 22.7054 47.9864 22.7052C47.3641 22.7049 47.316 22.6748 46.195 21.5856C44.818 20.2476 43.4396 19.4027 41.7038 18.8326C40.5756 18.4621 40.2391 18.4132 38.5171 18.3695C36.8111 18.3264 36.4548 18.3572 35.3896 18.6396ZM64.2446 26.5893L64.2101 32.9959H62.9487H61.6872L61.6527 26.5893L61.6183 20.1826H62.9487H64.279L64.2446 26.5893ZM40.5398 20.5719C41.6867 20.8652 42.9104 21.4484 43.8485 22.1487L44.4954 22.6316L44.0314 22.8697C43.1681 23.3127 43.1644 23.338 43.1644 28.8199C43.1644 34.1118 43.1932 34.361 43.8514 34.7721C44.0102 34.8713 44.563 34.9927 45.0797 35.0419L46.0192 35.1313L44.818 36.3342C43.8454 37.3084 43.4035 37.6418 42.4944 38.0874C40.9128 38.8628 39.9326 39.0904 38.1851 39.088C36.5042 39.0859 35.4974 38.8579 34.0489 38.1517C31.61 36.9625 29.6534 34.5058 29.0262 31.845C28.7396 30.6293 28.7678 28.6794 29.0904 27.4072C29.9319 24.0888 32.5145 21.4663 35.818 20.5758C37.08 20.2356 39.2179 20.2339 40.5398 20.5719ZM9.47945 22.9646C8.86428 23.3397 8.77571 23.8499 8.77571 27.0208C8.77571 30.0481 8.86786 30.6505 9.3942 31.0646C9.72191 31.3224 9.9151 31.3362 13.1842 31.3362H16.6287L17.0169 30.9481L17.405 30.5599V27.0887C17.405 24.9618 17.352 23.5185 17.2682 23.362C16.951 22.7692 16.5491 22.7054 13.1294 22.706C10.1679 22.7064 9.8681 22.7276 9.47945 22.9646ZM15.4133 27.0208V29.3445H13.0896H10.766V27.1094C10.766 25.88 10.8058 24.8343 10.8545 24.7857C10.9031 24.737 11.9488 24.6972 13.1782 24.6972H15.4133V27.0208ZM47.6789 28.8848V33.0723L46.4507 33.0342L45.2225 32.9959L45.1874 28.8465L45.1524 24.6972H46.4156H47.6789V28.8848ZM35.8896 27.5027C35.6221 27.5798 35.3524 27.7936 35.193 28.0549C34.9575 28.4412 34.9329 28.7347 34.9325 31.164C34.9321 32.9094 34.9855 33.964 35.0852 34.1829C35.3917 34.8555 35.7782 34.9811 37.699 35.0329C39.98 35.0944 40.5801 35.0032 41.0615 34.5217L41.4382 34.145V31.2315C41.4382 28.4975 41.4215 28.2968 41.1667 27.9727C41.0172 27.7828 40.6737 27.566 40.4032 27.4909C39.7956 27.3221 36.4855 27.3307 35.8896 27.5027ZM39.4465 31.2084V33.0723L38.2183 33.0342L36.9901 32.9959L36.9526 31.3435C36.9319 30.4347 36.9451 29.6131 36.9816 29.5177C37.0295 29.3929 37.3832 29.3445 38.2474 29.3445H39.4465V31.2084ZM9.27032 34.5561C8.94753 34.8012 8.78873 35.3339 8.92748 35.7058C9.17711 36.3747 9.16463 36.3731 14.4566 36.3776L19.4088 36.3818L19.7346 36.0559C20.1501 35.6405 20.1501 35.1314 19.7346 34.7161L19.4088 34.3901H14.4489C10.686 34.3901 9.43616 34.4302 9.27032 34.5561ZM9.17937 38.7397C8.74438 39.092 8.76934 39.7957 9.23088 40.1928L9.59643 40.5072L14.5748 40.4695L19.5531 40.4316L19.8068 40.1181C20.1356 39.7121 20.1284 39.2922 19.7853 38.8562L19.5102 38.5063H14.4889C9.89598 38.5063 9.44293 38.5262 9.17937 38.7397ZM51.862 41.6936L53.3185 43.1546L52.4901 43.983L51.6618 44.8113L50.1901 43.3397L48.7183 41.8679L49.4932 41.0654C49.9194 40.624 50.2991 40.2561 50.3368 40.2477C50.3745 40.2394 51.0608 40.89 51.862 41.6936ZM9.10461 42.8898C8.77319 43.256 8.79643 43.8987 9.154 44.2565C9.44094 44.5436 9.51211 44.5484 14.0559 44.5878C16.5916 44.6098 18.864 44.5915 19.1054 44.5472C19.9909 44.3846 20.3538 43.5184 19.7898 42.9132C19.5204 42.624 19.4941 42.6225 14.4328 42.6225C9.50428 42.6225 9.33897 42.6307 9.10461 42.8898ZM61.3885 48.9579C64.7593 52.337 66.5337 54.2084 66.5337 54.3841C66.5337 54.6482 63.2602 58.025 63.0043 58.025C62.8341 58.025 52.1934 47.3681 52.1934 47.1977C52.1934 47.1208 52.995 46.2643 53.9747 45.2942C55.4892 43.7944 55.7923 43.5506 55.9996 43.6651C56.1336 43.7392 58.5587 46.1209 61.3885 48.9579ZM9.23354 46.9089C8.76934 47.3082 8.74318 48.011 9.17937 48.3642C9.43603 48.572 9.80808 48.5976 12.5732 48.5976C15.5018 48.5976 15.694 48.5825 15.9444 48.3321C16.3021 47.9744 16.2952 47.2554 15.9307 46.9253C15.6764 46.6949 15.3823 46.6687 12.6266 46.6323C9.6036 46.5922 9.60134 46.5925 9.23354 46.9089Z" fill="white"/>
</g>
<defs>
<filter id="filter0_d_127_701" x="0" y="0" width="75.975" height="68" filterUnits="userSpaceOnUse" color-interpolation-filters="sRGB">
<feFlood flood-opacity="0" result="BackgroundImageFix"/>
<feColorMatrix in="SourceAlpha" type="matrix" values="0 0 0 0 0 0 0 0 0 0 0 0 0 0 0 0 0 0 127 0" result="hardAlpha"/>
<feOffset dy="4"/>
<feGaussianBlur stdDeviation="2"/>
<feComposite in2="hardAlpha" operator="out"/>
<feColorMatrix type="matrix" values="0 0 0 0 0 0 0 0 0 0 0 0 0 0 0 0 0 0 0.15 0"/>
<feBlend mode="normal" in2="BackgroundImageFix" result="effect1_dropShadow_127_701"/>
<feBlend mode="normal" in="SourceGraphic" in2="effect1_dropShadow_127_701" result="shape"/>
</filter>
</defs>
</svg>
