<svg width="76" height="68" viewBox="0 0 76 68" fill="none" xmlns="http://www.w3.org/2000/svg">
<g filter="url(#filter0_d_127_704)">
<path fill-rule="evenodd" clip-rule="evenodd" d="M4.54509 0.452135L4.05146 0.904269L4.01022 3.65712C3.98762 5.1712 4.00375 6.59606 4.0463 6.82338C4.15692 7.41601 4.66377 7.89722 5.36253 8.07313L5.96784 8.22552V29.008V49.7903L6.2438 50.1412C6.79902 50.8471 7.00718 50.8833 10.5031 50.8833C13.5674 50.8833 13.7474 50.8695 14.0781 50.6093C14.5145 50.2661 14.5556 49.5587 14.162 49.1652C13.9134 48.9166 13.7215 48.9008 10.924 48.9008H7.95031V28.5498V8.19869L18.9061 8.1634C29.4676 8.12943 29.8719 8.11899 30.1401 7.87634C30.4983 7.55201 30.5188 6.74025 30.1765 6.43046C29.9618 6.23605 29.4401 6.21173 25.4847 6.21173H21.0346V4.0971V1.98247H45.3528H69.6711V4.0971V6.21173H51.6511C34.3615 6.21173 33.6223 6.22151 33.4124 6.45346C33.0985 6.80026 33.1307 7.56747 33.4719 7.87634C33.7419 8.12084 34.2435 8.12917 50.7171 8.16261L67.6841 8.1971L67.7194 19.1514C67.7534 29.7115 67.7638 30.1158 68.0065 30.3839C68.178 30.5735 68.4178 30.6621 68.7589 30.6621C69.7278 30.6621 69.6711 31.3769 69.6711 19.1501V8.22552L70.2764 8.07313C70.9752 7.89722 71.482 7.41601 71.5926 6.82338C71.6352 6.59606 71.6513 5.1712 71.6287 3.65712L71.5875 0.904269L71.0938 0.452135L70.6001 0H37.8195H5.03886L4.54509 0.452135ZM19.0224 4.06406L18.986 6.14564L12.4769 6.17988L5.96784 6.21424V4.09829V1.98247H12.5133H19.0589L19.0224 4.06406ZM49.3594 10.0425C48.4286 10.4268 48.7621 11.8948 49.7803 11.8948C50.2839 11.8948 50.7716 11.4055 50.7716 10.9004C50.7716 10.2608 49.9864 9.78387 49.3594 10.0425ZM52.6635 10.0425C51.7327 10.4268 52.0663 11.8948 53.0844 11.8948C53.588 11.8948 54.0757 11.4055 54.0757 10.9004C54.0757 10.2608 53.2905 9.78387 52.6635 10.0425ZM55.9676 10.0425C55.0368 10.4268 55.3704 11.8948 56.3886 11.8948C56.8921 11.8948 57.3798 11.4055 57.3798 10.9004C57.3798 10.2608 56.5946 9.78387 55.9676 10.0425ZM59.2717 10.0425C58.3409 10.4268 58.6745 11.8948 59.6927 11.8948C60.1962 11.8948 60.6839 11.4055 60.6839 10.9004C60.6839 10.2608 59.8987 9.78387 59.2717 10.0425ZM62.5758 10.0425C61.645 10.4268 61.9786 11.8948 62.9968 11.8948C63.5003 11.8948 63.988 11.4055 63.988 10.9004C63.988 10.2608 63.2028 9.78387 62.5758 10.0425ZM10.25 11.419L9.80061 11.8684V15.1984C9.80061 18.0998 9.82968 18.5774 10.0261 18.9101C10.3751 19.5009 10.9298 19.6925 12.2918 19.6925H13.4873L13.1008 20.5185C12.4021 22.0117 12.14 23.2689 12.1438 25.1112C12.1476 27.0768 12.4257 28.3062 13.2427 29.9685C14.5551 32.6392 16.8047 34.5852 19.7129 35.5654C20.7996 35.9318 21.1997 35.9968 22.6866 36.0493C24.8144 36.1244 26.1914 35.8386 27.993 34.9485C33.7184 32.1194 35.8289 25.0479 32.5961 19.5252C31.6073 17.836 29.8741 16.186 28.2045 15.3444L27.6428 15.0613L27.6396 13.9077C27.6354 12.376 27.4839 11.7785 26.9869 11.3331L26.5813 10.9696H18.6403H10.6993L10.25 11.419ZM25.5282 15.3311V17.71H18.6556H11.7831V15.3311V12.9521H18.6556H25.5282V15.3311ZM13.4292 14.5982C13.0129 15.0144 13.0051 15.5879 13.4105 15.9689C13.6833 16.225 13.8624 16.2562 15.0626 16.2562C16.2327 16.2562 16.4435 16.2216 16.6732 15.9919C17.0667 15.5983 17.0256 14.891 16.5892 14.5477C16.2929 14.3146 16.0554 14.2738 14.9973 14.2738C13.853 14.2738 13.7276 14.2997 13.4292 14.5982ZM18.0372 14.4309C17.4016 14.7382 17.366 15.7874 17.9797 16.116C18.14 16.2018 19.2966 16.2562 20.9598 16.2562C23.5017 16.2562 23.6951 16.239 23.9422 15.9919C24.3358 15.5983 24.2947 14.891 23.8583 14.5477C23.5318 14.2909 23.3476 14.2743 20.9176 14.2827C19.3915 14.288 18.2068 14.349 18.0372 14.4309ZM38.2808 15.7085C37.7118 15.9684 36.9538 16.7435 36.7533 17.2707C36.5648 17.7665 36.6063 18.8513 36.8346 19.3975C37.0963 20.024 37.4863 20.4386 38.1499 20.7957C38.6773 21.0796 38.7035 21.0804 49.9125 21.1217C57.6906 21.1505 61.3521 21.1189 61.8148 21.0189C64.2493 20.4928 64.8397 17.228 62.7356 15.927L62.0925 15.5293L50.4516 15.498C39.4152 15.4684 38.7832 15.4794 38.2808 15.7085ZM29.5034 18.773C30.3138 19.5743 30.633 20.0154 31.1296 21.0198C31.4694 21.7072 31.8253 22.6563 31.9206 23.1288L32.0937 23.9878L27.4116 24.0539L22.7295 24.12L22.4107 24.4909C22.2354 24.6948 22.092 24.9327 22.0922 25.0195C22.0923 25.1063 22.737 27.1493 23.5247 29.5595L24.9568 33.9418L24.5652 34.02C23.8373 34.1657 21.8989 34.0958 21.0346 33.8928C17.8952 33.1554 15.1739 30.51 14.3779 27.4219C13.7554 25.0066 14.108 22.5376 15.379 20.4127L15.8097 19.6925H21.0037C26.5863 19.6925 26.87 19.6617 27.2942 19.0097C27.4045 18.84 27.5356 18.3901 27.5856 18.0098L27.6762 17.3183L28.0857 17.5472C28.3109 17.6732 28.9489 18.2247 29.5034 18.773ZM54.5776 18.2717L54.5383 19.0978L46.9388 19.1295C41.03 19.1541 39.2659 19.1241 39.0089 18.9943C38.5891 18.7823 38.4861 18.0686 38.8219 17.6976C39.0413 17.4552 39.345 17.4457 46.8335 17.4457H54.6169L54.5776 18.2717ZM61.8661 17.7969C62.0448 18.0241 62.1131 18.2458 62.0597 18.4246C61.868 19.0671 61.7509 19.0952 59.0936 19.1389L56.5868 19.1798V18.3128V17.4457H59.0883H61.5899L61.8661 17.7969ZM38.0715 22.6433C37.2275 23.0889 36.7267 23.8637 36.6567 24.8322C36.5856 25.8138 36.7792 26.406 37.3701 27.0144C38.2727 27.9437 37.5078 27.8948 50.505 27.8558L62.2232 27.8206L62.7679 27.4601C64.5985 26.2485 64.4191 23.5487 62.4417 22.5495C62.0616 22.3575 60.8338 22.3358 50.3364 22.3358H38.6541L38.0715 22.6433ZM47.9961 25.1112V25.9042H43.546C38.6513 25.9042 38.6124 25.8979 38.6124 25.1001C38.6124 24.3159 38.5971 24.3183 43.5119 24.3183H47.9961V25.1112ZM61.9767 24.7453C62.1553 25.1178 62.0309 25.5743 61.6884 25.8031C61.6084 25.8565 58.9411 25.9011 55.7608 25.9022L49.9786 25.9042V25.1099V24.3155L55.8912 24.35L61.8037 24.3843L61.9767 24.7453ZM32.0448 26.1355C32.1606 26.3396 31.7357 27.9489 31.3466 28.7805C30.5038 30.5814 29.1682 32.0627 27.6279 32.9051L26.9226 33.2908L25.7186 29.7626C25.0563 27.8222 24.538 26.19 24.5665 26.1355C24.5952 26.0811 26.2769 26.0364 28.3036 26.0364C30.3304 26.0364 32.0139 26.0811 32.0448 26.1355ZM38.4323 29.2698C36.4438 29.9786 35.9834 32.714 37.6248 34.067C37.8854 34.2817 38.3253 34.5254 38.6021 34.6084C39.2971 34.8166 61.3117 34.8211 62.0716 34.6132C62.8634 34.3966 63.7882 33.3867 63.9696 32.5405C64.1871 31.5268 63.909 30.6249 63.1609 29.9182C62.8384 29.6134 62.3424 29.2997 62.0588 29.2209C61.7062 29.123 57.9666 29.0792 50.2429 29.0826C40.9919 29.0869 38.8503 29.1207 38.4323 29.2698ZM53.2827 31.9177V32.7768H46.2414C38.3909 32.7768 38.6124 32.8018 38.6124 31.9177C38.6124 31.0337 38.3909 31.0586 46.2414 31.0586H53.2827V31.9177ZM61.7431 31.2979C61.9252 31.4453 62.0386 31.6832 62.0386 31.9177C62.0386 32.1522 61.9252 32.3901 61.7431 32.5376C61.4768 32.7531 61.1428 32.7768 58.3564 32.7768H55.2652V31.9177V31.0586H58.3564C61.1428 31.0586 61.4768 31.0823 61.7431 31.2979ZM68.0065 33.7157C67.7661 33.9813 67.7531 34.331 67.7185 41.4473L67.6823 48.9008H42.7064C17.9066 48.9008 17.7286 48.9027 17.4661 49.1652C17.0726 49.5587 17.1137 50.2661 17.5501 50.6093C17.895 50.8806 17.9883 50.8833 27.3302 50.8833H36.7621V52.2513V53.6192L36.1107 54.0242C35.3139 54.5195 34.8238 55.2307 34.6257 56.1795C34.2193 58.1258 35.7861 60 37.8195 60C39.8528 60 41.4196 58.1258 41.0132 56.1795C40.8151 55.2307 40.325 54.5195 39.5282 54.0242L38.8768 53.6192V52.2513V50.8833H53.6197C69.6922 50.8833 68.7775 50.9264 69.3951 50.1412C69.6679 49.7943 69.6711 49.7014 69.6711 41.9077C69.6711 33.0612 69.7117 33.4376 68.7589 33.4376C68.4178 33.4376 68.178 33.5263 68.0065 33.7157ZM17.8443 38.1836C17.5363 38.4327 17.5317 38.474 17.4898 41.2895L17.4474 44.1429H16.862H16.2767V42.6832C16.2767 41.3094 16.2575 41.2041 15.9522 40.8989C15.7738 40.7205 15.4738 40.5745 15.2854 40.5745C15.0971 40.5745 14.7971 40.7205 14.6187 40.8989C14.3138 41.2037 14.2942 41.3104 14.2942 42.6662V44.1091L13.7637 44.1939C12.7937 44.3491 12.386 45.201 12.9777 45.8361L13.2472 46.1254H38.5515C63.6797 46.1254 63.8577 46.1235 64.1202 45.861C64.4522 45.5291 64.46 44.9261 64.1374 44.5279C63.9173 44.2559 63.7516 44.2167 62.6175 44.1671L61.3447 44.1113V42.0065C61.3447 39.9479 61.3376 39.8945 61.0203 39.5773C60.6069 39.1637 60.1001 39.1637 59.6867 39.5773C59.3691 39.8947 59.3623 39.947 59.3623 42.0223V44.1429H58.7769H58.1915L58.1491 41.2895C58.1072 38.474 58.1026 38.4327 57.7947 38.1836C57.3901 37.8562 56.7885 37.8617 56.4546 38.1955C56.2067 38.4435 56.1903 38.636 56.1903 41.3014V44.1429H55.5295H54.8687V42.6327C54.8687 41.1584 54.8603 41.1158 54.5204 40.8484C54.0864 40.5069 53.6686 40.4998 53.2643 40.8269C52.9744 41.0614 52.9491 41.1876 52.9079 42.6111L52.8635 44.1429H52.2801H51.6967V43.3646C51.6967 42.4566 51.457 42.0722 50.8133 41.9478C50.4739 41.8822 50.327 41.9322 50.0534 42.2058C49.7641 42.4951 49.7143 42.6624 49.7143 43.344V44.1429H49.1195H48.5248V41.5854C48.5248 38.94 48.427 38.2938 47.991 38.0606C47.6023 37.8525 47.0915 37.9107 46.8066 38.1955C46.5587 38.4435 46.5423 38.636 46.5423 41.3014V44.1429H45.8815H45.2207V41.9852C45.2207 39.9007 45.2104 39.8178 44.9148 39.5402C44.509 39.159 43.966 39.1739 43.5627 39.5773C43.2451 39.8947 43.2382 39.947 43.2382 42.0223V44.1429H42.6435H42.0487V41.3853C42.0487 38.7955 42.0321 38.6064 41.7747 38.2794C41.4167 37.8243 40.7599 37.8047 40.3536 38.237C40.0772 38.5312 40.0663 38.65 40.0663 41.3429V44.1429H39.4715H38.8768L38.876 42.9865C38.8751 41.452 38.7191 40.9151 38.214 40.7058C37.9007 40.5761 37.7382 40.5761 37.425 40.7058C36.9198 40.9151 36.7639 41.452 36.7629 42.9865L36.7621 44.1429H36.1674H35.5727V43.344C35.5727 42.6624 35.5228 42.4951 35.2335 42.2058C34.9589 41.9311 34.8146 41.8825 34.4753 41.9504C33.8355 42.0784 33.6751 42.3264 33.6143 43.2823L33.5594 44.1429H32.9801H32.4007V42.0223C32.4007 39.947 32.3938 39.8947 32.0763 39.5773C31.6601 39.161 31.0866 39.1532 30.7056 39.5587C30.435 39.8468 30.4183 39.9894 30.4183 42.0037V44.1429H29.7574H29.0966V43.2935C29.0966 42.5331 29.06 42.4153 28.7484 42.1701C28.2973 41.8152 28.0055 41.8242 27.5609 42.2066C27.2581 42.4672 27.1905 42.6477 27.1412 43.33L27.0824 44.1429H26.5035H25.9247V42.6832C25.9247 41.3094 25.9055 41.2041 25.6002 40.8989C25.4218 40.7205 25.1218 40.5745 24.9334 40.5745C24.7451 40.5745 24.4451 40.7205 24.2667 40.8989C23.9614 41.2041 23.9422 41.3094 23.9422 42.6832V44.1429H23.3475H22.7527V42.0223C22.7527 39.947 22.7458 39.8947 22.4283 39.5773C22.0121 39.161 21.4386 39.1532 21.0576 39.5587C20.787 39.8468 20.7703 39.9894 20.7703 42.0037V44.1429H20.1094H19.4486V41.3014C19.4486 38.636 19.4322 38.4435 19.1843 38.1955C18.8504 37.8617 18.2488 37.8562 17.8443 38.1836ZM38.5444 55.7181C38.9965 56.0143 39.2134 56.7336 39.0035 57.2403C38.7878 57.7611 38.3945 58.0202 37.8195 58.0202C37.2428 58.0202 36.8511 57.7609 36.6333 57.235C36.165 56.1047 37.5078 55.0389 38.5444 55.7181Z" fill="white"/>
</g>
<defs>
<filter id="filter0_d_127_704" x="0" y="0" width="75.6389" height="68" filterUnits="userSpaceOnUse" color-interpolation-filters="sRGB">
<feFlood flood-opacity="0" result="BackgroundImageFix"/>
<feColorMatrix in="SourceAlpha" type="matrix" values="0 0 0 0 0 0 0 0 0 0 0 0 0 0 0 0 0 0 127 0" result="hardAlpha"/>
<feOffset dy="4"/>
<feGaussianBlur stdDeviation="2"/>
<feComposite in2="hardAlpha" operator="out"/>
<feColorMatrix type="matrix" values="0 0 0 0 0 0 0 0 0 0 0 0 0 0 0 0 0 0 0.15 0"/>
<feBlend mode="normal" in2="BackgroundImageFix" result="effect1_dropShadow_127_704"/>
<feBlend mode="normal" in="SourceGraphic" in2="effect1_dropShadow_127_704" result="shape"/>
</filter>
</defs>
</svg>
