<svg width="98" height="78" viewBox="0 0 98 78" fill="none" xmlns="http://www.w3.org/2000/svg">
<g filter="url(#filter0_d_127_40)">
<path d="M85.193 2.05882C80.6868 0.617647 75.734 0 70.9842 0C63.0679 0 54.5426 1.64706 48.6561 6.17647C42.7696 1.64706 34.2444 0 26.3281 0C18.4118 0 9.88649 1.64706 4 6.17647V66.5C4 67.5294 5.01491 68.5588 6.02982 68.5588C6.43579 68.5588 6.63877 68.3529 7.04474 68.3529C12.5253 65.6765 20.4416 63.8235 26.3281 63.8235C34.2444 63.8235 42.7696 65.4706 48.6561 70C54.1367 66.5 64.0828 63.8235 70.9842 63.8235C77.6826 63.8235 84.584 65.0588 90.2675 68.1471C90.6735 68.3529 90.8765 68.3529 91.2824 68.3529C92.2973 68.3529 93.3123 67.3235 93.3123 66.2941V6.17647C90.8765 4.32353 88.2377 3.08824 85.193 2.05882ZM85.193 57.6471C80.7273 56.2059 75.8558 55.5882 70.9842 55.5882C64.0828 55.5882 54.1367 58.2647 48.6561 61.7647V14.4118C54.1367 10.9118 64.0828 8.23529 70.9842 8.23529C75.8558 8.23529 80.7273 8.85294 85.193 10.2941V57.6471Z" fill="white"/>
</g>
<defs>
<filter id="filter0_d_127_40" x="0" y="0" width="97.3123" height="78" filterUnits="userSpaceOnUse" color-interpolation-filters="sRGB">
<feFlood flood-opacity="0" result="BackgroundImageFix"/>
<feColorMatrix in="SourceAlpha" type="matrix" values="0 0 0 0 0 0 0 0 0 0 0 0 0 0 0 0 0 0 127 0" result="hardAlpha"/>
<feOffset dy="4"/>
<feGaussianBlur stdDeviation="2"/>
<feComposite in2="hardAlpha" operator="out"/>
<feColorMatrix type="matrix" values="0 0 0 0 0 0 0 0 0 0 0 0 0 0 0 0 0 0 0.15 0"/>
<feBlend mode="normal" in2="BackgroundImageFix" result="effect1_dropShadow_127_40"/>
<feBlend mode="normal" in="SourceGraphic" in2="effect1_dropShadow_127_40" result="shape"/>
</filter>
</defs>
</svg>
