<svg width="87" height="88" viewBox="0 0 87 88" fill="none" xmlns="http://www.w3.org/2000/svg">
<g filter="url(#filter0_d_127_50)">
<path d="M55.2676 8V36H16.5014L14.1746 38.36L11.8873 40.68V8H55.2676ZM59.2112 0H7.94366C5.77465 0 4 1.8 4 4V60L19.7746 44H59.2112C61.3803 44 63.1549 42.2 63.1549 40V4C63.1549 1.8 61.3803 0 59.2112 0ZM78.9296 16H71.0422V52H19.7746V60C19.7746 62.2 21.5493 64 23.7183 64H67.0986L82.8732 80V20C82.8732 17.8 81.0986 16 78.9296 16Z" fill="white"/>
</g>
<defs>
<filter id="filter0_d_127_50" x="0" y="0" width="86.8732" height="88" filterUnits="userSpaceOnUse" color-interpolation-filters="sRGB">
<feFlood flood-opacity="0" result="BackgroundImageFix"/>
<feColorMatrix in="SourceAlpha" type="matrix" values="0 0 0 0 0 0 0 0 0 0 0 0 0 0 0 0 0 0 127 0" result="hardAlpha"/>
<feOffset dy="4"/>
<feGaussianBlur stdDeviation="2"/>
<feComposite in2="hardAlpha" operator="out"/>
<feColorMatrix type="matrix" values="0 0 0 0 0 0 0 0 0 0 0 0 0 0 0 0 0 0 0.15 0"/>
<feBlend mode="normal" in2="BackgroundImageFix" result="effect1_dropShadow_127_50"/>
<feBlend mode="normal" in="SourceGraphic" in2="effect1_dropShadow_127_50" result="shape"/>
</filter>
</defs>
</svg>
