<svg width="660" height="480" viewBox="0 0 660 480" fill="none" xmlns="http://www.w3.org/2000/svg">
<g clip-path="url(#clip0_127_720)">
<path d="M315.607 171.415H83.276L40.0884 218.555V171.415H0V0H315.607V171.415Z" fill="#E5E5E5"/>
<path d="M263.856 50.3535H51.7512V59.6385H263.856V50.3535Z" fill="white"/>
<path d="M263.856 81.0654H51.7512V90.3504H263.856V81.0654Z" fill="white"/>
<path d="M263.856 111.778H51.7512V121.063H263.856V111.778Z" fill="white"/>
<path d="M40.7273 247.407C45.1326 247.407 48.7037 243.908 48.7037 239.591C48.7037 235.275 45.1326 231.775 40.7273 231.775C36.3221 231.775 32.751 235.275 32.751 239.591C32.751 243.908 36.3221 247.407 40.7273 247.407Z" fill="#E6E6E6"/>
<path d="M557.104 469.192H548.167L543.915 435.413H557.105L557.104 469.192Z" fill="#9F616A"/>
<path d="M559.383 477.68L530.566 477.679V477.322C530.566 474.407 531.748 471.611 533.851 469.55C535.954 467.489 538.807 466.331 541.782 466.331H541.783L559.383 466.332L559.383 477.68Z" fill="#2F2E41"/>
<path d="M469.997 468.497L461.524 465.713L468.45 432.361L480.956 436.47L469.997 468.497Z" fill="#9F616A"/>
<path d="M469.405 477.257L442.082 468.28L442.198 467.941C443.144 465.178 445.171 462.895 447.834 461.596C450.497 460.297 453.578 460.088 456.398 461.014L456.399 461.014L473.087 466.497L469.405 477.257Z" fill="#2F2E41"/>
<path d="M481.014 294.617L461.661 455.045L480.643 456.614C480.643 456.614 510.502 298.884 519.707 317.568C528.912 336.253 540.19 453.113 540.19 453.113H559.029C559.029 453.113 563.86 270.779 544.135 261.759L481.014 294.617Z" fill="#2F2E41"/>
<path d="M531.178 162.448C533.006 152.285 526.079 142.595 515.708 140.805C505.337 139.015 495.449 145.802 493.622 155.964C491.795 166.127 498.721 175.817 509.092 177.607C519.463 179.397 529.351 172.61 531.178 162.448Z" fill="#9F616A"/>
<path d="M501.069 184.767L525.396 186.699C525.396 186.699 544.793 187.022 552.683 192.176C560.573 197.33 545.122 229.222 545.122 229.222C545.122 229.222 541.105 241.867 544.135 247.585C553.969 266.137 552.511 280.423 552.511 280.423C552.511 280.423 532.3 284.953 497.452 293.973C497.452 293.973 475.755 302.349 476.412 297.839C477.07 293.329 483.645 241.786 483.645 241.786V188.31L501.069 184.767Z" fill="#3F3D56"/>
<path d="M543.626 157.181C542.653 151.86 540.472 144.312 535.615 138.589C535.768 138.59 535.92 138.597 536.073 138.593C537.743 138.545 539.642 138.029 540.332 136.539C540.554 135.942 540.61 135.297 540.493 134.672C540.376 134.047 540.09 133.464 539.666 132.983C538.805 132.034 537.775 131.245 536.627 130.656C537.798 131.353 539.454 132 540.389 131.019C540.63 130.723 540.779 130.366 540.819 129.99C540.86 129.614 540.79 129.234 540.619 128.895C540.264 128.223 539.765 127.634 539.157 127.168C537.188 125.461 535.033 123.971 532.732 122.725C530.95 121.761 528.607 120.986 527.008 122.22C525.378 123.477 525.64 125.924 526.059 127.915C525.146 127.392 524.121 127.089 523.065 127.029C522.538 127.015 522.022 127.179 521.604 127.493C521.186 127.808 520.891 128.255 520.77 128.758C520.754 129.155 520.844 129.549 521.03 129.902C521.216 130.255 521.491 130.555 521.83 130.773C515.544 129.76 507.51 130.909 497.241 135.565C497.241 135.565 487.283 138.818 486.777 151.663C486.726 153.717 486.958 155.769 487.468 157.762C488.029 160.09 490.025 171.514 487.631 176.13L499.623 180.317L499.761 173.278C490.441 160.095 495.045 155.257 498.674 147.328C498.68 147.314 498.69 147.301 498.703 147.292C498.715 147.283 498.731 147.277 498.746 147.276C498.762 147.275 498.778 147.278 498.792 147.285C498.806 147.293 498.818 147.303 498.826 147.317C499.497 148.444 502.067 152.31 510.911 152.31L507.493 148.961C507.493 148.961 522.531 154.989 527.999 154.989C527.999 154.989 532.1 157.668 527.999 161.686C523.898 165.705 514.922 171.62 519.707 178.987C524.491 186.355 524.079 188.969 524.079 188.969L535.015 182.941C535.015 182.941 541.695 169.991 542.88 166.177C543.853 163.279 544.109 160.195 543.626 157.181Z" fill="#2F2E41"/>
<path d="M412.217 302.379H629.777V420.542H602.142V453.037L572.372 420.542H412.217V302.379Z" fill="#00556F"/>
<path d="M594.103 337.088H447.891V343.488H594.103V337.088Z" fill="white"/>
<path d="M594.103 358.26H447.891V364.66H594.103V358.26Z" fill="white"/>
<path d="M594.103 379.431H447.891V385.831H594.103V379.431Z" fill="white"/>
<path d="M555.066 226.666L542.305 229.706L542.209 255.012L527.856 303.553C526.707 304.443 525.829 305.625 525.317 306.969C524.805 308.314 524.679 309.77 524.952 311.18C525.225 312.59 525.887 313.9 526.866 314.968C527.845 316.035 529.104 316.819 530.505 317.235C531.907 317.651 533.398 317.683 534.817 317.327C536.236 316.971 537.529 316.242 538.554 315.217C539.579 314.192 540.299 312.912 540.634 311.515C540.97 310.118 540.908 308.657 540.456 307.292L557.614 257.041L555.066 226.666Z" fill="#9F616A"/>
<path d="M470.136 226.133L485.445 230.419L485.541 255.725L499.894 304.266C501.042 305.157 501.921 306.338 502.433 307.683C502.945 309.027 503.071 310.484 502.798 311.894C502.525 313.304 501.863 314.614 500.884 315.681C499.905 316.748 498.646 317.533 497.244 317.949C495.843 318.365 494.351 318.396 492.932 318.041C491.514 317.685 490.221 316.955 489.196 315.93C488.17 314.905 487.451 313.625 487.116 312.228C486.78 310.831 486.842 309.371 487.294 308.006L470.136 257.755V226.133Z" fill="#9F616A"/>
<path d="M535.916 189.598L539.079 188.588C540.854 188.02 542.785 188.152 544.464 188.954C544.464 188.954 553.669 189.598 554.984 196.041C556.299 202.484 559.497 258.798 559.497 258.798L539.999 252.719L535.916 189.598Z" fill="#3F3D56"/>
<path d="M491.535 189.597L485.937 189.322L484.165 188.453C484.165 188.453 473.782 189.597 472.467 196.04C471.152 202.483 467.326 260.534 467.326 260.534L486.824 255.324L491.535 189.597Z" fill="#3F3D56"/>
<path d="M169.964 417.856L179.206 409.957C178.811 404.282 178.089 398.634 177.045 393.039L171.944 395.153L176.676 391.108C175.315 384.203 173.967 379.714 173.967 379.714C173.967 379.714 155.32 395.94 144.885 415.734L149.462 430.489L142.471 420.732C141.431 423.087 140.544 425.504 139.814 427.969C132.538 452.839 134.929 475.33 145.154 478.202C155.38 481.074 169.567 463.241 176.843 438.37C178.966 430.404 179.83 422.165 179.406 413.942L169.964 417.856Z" fill="#F1F1F1"/>
<path d="M194.437 437.195L206.516 435.113C209.171 430.055 211.533 424.854 213.59 419.536L208.108 418.763L214.293 417.697C216.77 411.096 217.984 406.57 217.984 406.57C217.984 406.57 193.462 411.016 174.088 422.675L170.223 437.624L169.385 425.731C167.252 427.22 165.218 428.84 163.293 430.58C143.945 448.185 134.128 468.649 141.366 476.287C148.605 483.925 170.157 475.845 189.505 458.24C195.525 452.495 200.61 445.881 204.585 438.626L194.437 437.195Z" fill="#F1F1F1"/>
<path d="M658.672 478.516H110.96C110.725 478.516 110.5 478.425 110.334 478.262C110.167 478.099 110.074 477.878 110.074 477.648C110.074 477.417 110.167 477.197 110.334 477.034C110.5 476.871 110.725 476.779 110.96 476.779H658.672C658.907 476.779 659.132 476.871 659.298 477.034C659.465 477.197 659.558 477.417 659.558 477.648C659.558 477.878 659.465 478.099 659.298 478.262C659.132 478.425 658.907 478.516 658.672 478.516Z" fill="#CBCBCB"/>
</g>
<defs>
<clipPath id="clip0_127_720">
<rect width="659.558" height="479.166" fill="white"/>
</clipPath>
</defs>
</svg>
