<svg width="20" height="20" viewBox="0 0 20 20" fill="none" xmlns="http://www.w3.org/2000/svg">
<path d="M18.9222 14.6704L16.98 12.7282C16.6285 12.3769 16.1882 12.1275 15.7061 12.0068C15.2241 11.8861 14.7182 11.8984 14.2426 12.0426C13.767 12.1867 13.3395 12.4573 13.0056 12.8254C12.6717 13.1935 12.4439 13.6453 12.3467 14.1326C9.14387 13.5337 6.02887 10.4315 5.83498 7.65874C6.37947 7.55858 6.88057 7.29505 7.27165 6.90318C7.78657 6.3882 8.07584 5.68977 8.07584 4.96152C8.07584 4.23326 7.78657 3.53484 7.27165 3.01985L5.32998 1.07763C4.815 0.56271 4.11657 0.273437 3.38832 0.273438C2.66007 0.273437 1.96164 0.56271 1.44665 1.07763C-4.37891 6.90318 13.0967 24.3787 18.9222 18.5532C19.4368 18.0381 19.7259 17.3399 19.7259 16.6118C19.7259 15.8837 19.4368 15.1854 18.9222 14.6704Z" fill="#00607D"/>
</svg>
