
<svg width="250" height="250" viewBox="0 0 250 250" fill="none" xmlns="http://www.w3.org/2000/svg">
<path d="M249.195 73.7887C249.055 63.2917 247.086 52.8991 243.378 43.0757C240.162 34.7898 235.25 27.2646 228.956 20.9811C222.662 14.6976 215.125 9.79392 206.825 6.58333C197.112 2.94319 186.85 0.974904 176.477 0.762281C163.122 0.166316 158.888 0 124.986 0C91.0845 0 86.7392 9.29361e-07 73.4812 0.762281C63.113 0.976467 52.8563 2.94473 43.1475 6.58333C34.8464 9.79168 27.3076 14.6946 21.0133 20.9784C14.7191 27.2622 9.80799 34.7885 6.59429 43.0757C2.94079 52.7654 0.9735 63.0074 0.777432 73.359C0.180475 86.7059 0 90.933 0 124.778C0 158.623 -1.03434e-07 162.948 0.777432 176.197C0.985673 186.564 2.94313 196.793 6.59429 206.509C9.81338 214.793 14.7281 222.316 21.0245 228.598C27.3209 234.879 34.8604 239.78 43.1614 242.987C52.8436 246.773 63.1021 248.883 73.4951 249.224C86.8642 249.82 91.0984 250 125 250C158.902 250 163.247 250 176.505 249.224C186.877 249.02 197.14 247.056 206.853 243.417C215.15 240.202 222.686 235.297 228.979 229.014C235.273 222.731 240.186 215.208 243.406 206.924C247.057 197.223 249.014 186.994 249.223 176.613C249.82 163.28 250 159.053 250 125.194C249.972 91.3488 249.972 87.0523 249.195 73.7887V73.7887ZM124.903 188.782C89.4464 188.782 60.723 160.106 60.723 124.709C60.723 89.3115 89.4464 60.6359 124.903 60.6359C141.924 60.6359 158.249 67.3864 170.285 79.4025C182.321 91.4185 189.083 107.716 189.083 124.709C189.083 141.702 182.321 157.999 170.285 170.015C158.249 182.031 141.924 188.782 124.903 188.782V188.782ZM191.637 73.2066C189.671 73.2084 187.724 72.8232 185.908 72.073C184.091 71.3228 182.441 70.2223 181.051 68.8346C179.661 67.4469 178.558 65.7991 177.807 63.9856C177.056 62.1721 176.67 60.2284 176.671 58.2659C176.671 56.3048 177.058 54.3628 177.81 52.551C178.562 50.7391 179.664 49.0929 181.053 47.7061C182.442 46.3194 184.091 45.2194 185.906 44.4689C187.721 43.7184 189.666 43.3321 191.63 43.3321C193.595 43.3321 195.54 43.7184 197.355 44.4689C199.169 45.2194 200.818 46.3194 202.207 47.7061C203.597 49.0929 204.698 50.7391 205.45 52.551C206.202 54.3628 206.589 56.3048 206.589 58.2659C206.589 66.5262 199.897 73.2066 191.637 73.2066Z" fill="#00607D"/>
<path d="M124.903 166.329C147.928 166.329 166.593 147.695 166.593 124.708C166.593 101.722 147.928 83.0879 124.903 83.0879C101.879 83.0879 83.2134 101.722 83.2134 124.708C83.2134 147.695 101.879 166.329 124.903 166.329Z" fill="#00607D"/>
</svg>
