<svg width="54" height="52" viewBox="0 0 54 52" fill="none" xmlns="http://www.w3.org/2000/svg">
<path d="M25.1075 10.4068C24.2071 11.1686 23.4429 11.9014 22.5842 12.4983C22.2878 12.7055 21.7432 12.6676 21.3457 12.583C15.7326 11.3846 10.8267 12.6921 6.876 16.9665C2.01618 22.2232 2.24676 30.0347 7.3218 35.2535C7.80932 35.7547 8.05528 36.2559 8.1541 36.9642C8.321 38.167 8.67456 39.343 8.97541 40.6416C4.02555 37.7772 0.850085 33.6943 0.136374 27.9744C-1.12195 17.9043 6.51366 10.1551 15.3637 9.06592C18.6929 8.65162 21.9013 9.05924 25.1075 10.4068Z" fill="#00607D"/>
<path d="M44.6017 11.5205C50.2213 14.2068 54.0271 21.3768 53.2057 27.785C52.1824 35.7725 45.7963 42.0003 37.8708 42.8601C34.5614 43.2187 31.4035 42.8 28.2192 41.5214C29.0845 40.7173 29.8641 39.94 30.7117 39.245C30.8918 39.0958 31.32 39.1916 31.6143 39.2584C37.5634 40.6082 42.7175 39.2161 46.7801 34.5162C51.0932 29.5268 50.9153 22.0873 46.4749 17.1982C45.9391 16.6079 45.6426 16.0087 45.5064 15.2158C45.2956 13.9796 44.9157 12.7723 44.6017 11.5205Z" fill="#00607D"/>
<path d="M11.5052 8.89907C13.5783 5.69829 16.3475 3.46643 19.7843 2.03198C27.3386 -1.11979 36.4214 1.35262 41.301 7.91233C44.8805 12.7235 45.5306 19.1674 42.9348 24.6179C42.1377 23.8205 41.3383 23.0631 40.5983 22.2479C40.4577 22.0942 40.4819 21.6911 40.5587 21.4438C43.0249 13.2781 37.1659 5.47778 29.3875 4.19925C24.7539 3.43748 20.599 4.49995 16.9843 7.59604C16.7911 7.7631 16.5583 7.93906 16.3211 7.98584C14.7554 8.30213 13.183 8.58501 11.5052 8.89907Z" fill="#00607D"/>
<path d="M41.7469 43.5396C39.0128 47.4264 35.486 49.9055 31.0368 50.8611C23.9568 52.3824 17.7245 50.6383 12.9305 45.052C8.5846 39.9847 7.8072 34.1288 10.3107 27.8742C10.37 27.725 10.4556 27.5847 10.5369 27.4243C11.3033 28.2462 12.0565 29.0214 12.7571 29.8388C12.9086 30.0148 12.9723 30.3912 12.902 30.6206C10.5457 38.2295 15.6426 46.3328 23.9744 47.8764C28.4038 48.696 32.4401 47.6514 36.0394 44.8738C36.4259 44.5753 36.9595 44.4239 37.4493 44.3236C38.8262 44.0363 40.2141 43.8136 41.7469 43.5396Z" fill="#00607D"/>
<path d="M20.2783 17.234C23.3791 12.7391 27.4176 10.1575 32.5278 9.32668C33.6873 9.13735 34.8776 9.10171 36.0546 9.11062C36.4346 9.11285 36.944 9.38236 37.1658 9.69643C37.7895 10.5785 38.2968 11.5496 38.9139 12.5943C36.72 12.5943 34.6909 12.4205 32.7035 12.6388C30.1407 12.9195 27.9293 14.1913 25.9155 15.8129C25.5334 16.1203 25.0064 16.2895 24.5189 16.3987C23.1793 16.6994 21.8309 16.9333 20.2783 17.234Z" fill="#00607D"/>
<path d="M17.5137 32.2177C12.0609 28.7585 8.99962 23.9785 8.93594 17.3965C8.92935 16.7105 9.14456 16.2583 9.7331 15.9554C10.662 15.4765 11.5888 14.9865 12.4013 14.561C12.4013 15.9999 12.32 17.3876 12.4167 18.7619C12.6385 21.9048 13.9561 24.5643 16.0533 26.863C16.3344 27.1726 16.5101 27.6292 16.6111 28.048C16.9361 29.3956 17.2018 30.7565 17.5137 32.2177Z" fill="#00607D"/>
<path d="M33.1757 34.8394C30.9028 38.3074 27.8481 40.7219 23.9743 41.9737C22.3931 42.4838 20.7109 42.6642 19.0727 42.9917C18.0801 43.1899 17.2412 42.8647 16.5868 42.1297C15.895 41.3523 15.267 40.5192 14.6104 39.7085C14.6696 39.6283 14.7311 39.5481 14.7904 39.4679C15.2911 39.537 15.7896 39.6261 16.2925 39.6706C20.5111 40.0559 24.2905 38.9846 27.5823 36.2203C27.9293 35.9286 28.4322 35.7771 28.8868 35.6769C30.2879 35.3739 31.6999 35.1222 33.1757 34.8394Z" fill="#00607D"/>
<path d="M41.0397 37.1826C41.0397 35.6925 41.1626 34.2558 41.0133 32.8481C40.7059 29.9458 39.4453 27.4511 37.4931 25.3128C37.2559 25.0522 36.9704 24.7582 36.8979 24.433C36.5641 22.9517 36.2984 21.4549 35.9954 19.8979C40.6795 22.8092 43.5673 26.8742 44.4435 32.4561C44.7663 34.5053 44.0987 35.6791 42.377 36.4788C41.9071 36.6993 41.4569 36.9621 41.0397 37.1826Z" fill="#00607D"/>
<path d="M23.366 31.2556C28.7924 31.9884 33.4282 30.7499 37.4315 26.8208C38.0662 27.7919 38.6679 28.7119 39.3047 29.6875C37.2207 31.6676 34.9039 33.0954 32.2379 33.7881C30.4438 34.2537 28.5684 34.4252 26.7171 34.6056C26.2669 34.6501 25.6389 34.3316 25.3248 33.9708C24.5957 33.1333 24.0094 32.1688 23.366 31.2556Z" fill="#00607D"/>
<path d="M21.5564 22.6245C20.4145 28.1953 21.9715 32.5454 25.9221 36.2585C24.9822 36.7975 24.106 37.3321 23.1925 37.7931C23.0234 37.8778 22.6259 37.7375 22.4634 37.5704C19.3275 34.3318 17.7134 30.4427 17.7046 25.8921C17.7046 25.5914 17.7968 25.1638 18.0011 25.0145C19.0771 24.2305 20.2037 23.5222 21.5564 22.6245Z" fill="#00607D"/>
<path d="M32.0097 29.084C32.8266 23.7449 31.3531 19.3948 27.4617 15.7374C28.5224 15.1472 29.5084 14.597 30.5515 14.0156C33.9027 17.4748 35.6924 21.4953 35.5453 26.3265C35.5387 26.5737 35.3345 26.899 35.1259 27.0437C34.1047 27.7498 33.0506 28.4091 32.0097 29.084Z" fill="#00607D"/>
<path d="M30.3077 21.0872C24.7407 20.0604 20.1422 21.3211 16.1125 25.1656C15.5657 24.2524 15.0233 23.406 14.5577 22.5172C14.4786 22.3658 14.6543 21.9559 14.8278 21.8089C18.4008 18.7752 22.5293 17.3363 27.1871 17.4699C27.4199 17.4766 27.7295 17.5858 27.8635 17.7595C28.6431 18.7685 29.381 19.8109 30.3077 21.0872Z" fill="#00607D"/>
</svg>
