
<svg width="54" height="52" viewBox="0 0 54 52" fill="none" xmlns="http://www.w3.org/2000/svg">
<path d="M0.35509 30.4475C-0.0762945 27.9587 -0.0776684 25.548 0.15393 23.1076C0.554148 18.8904 2.05193 15.0654 4.47777 11.5911C7.67382 7.0136 11.939 3.6762 17.3497 1.73045C19.6364 0.908102 21.957 0.308809 24.4052 0.19227C25.7273 0.129332 25.726 0.10388 25.726 1.37151C25.726 4.4943 25.7135 7.61717 25.7379 10.7398C25.7421 11.2767 25.549 11.5002 25.0126 11.5477C22.4859 11.7715 20.2131 12.6664 18.1787 14.0906C14.7245 16.5087 12.6151 19.7316 11.958 23.8288C11.5106 26.6188 11.8713 29.2859 13.0519 31.8562C13.1695 32.1124 13.2884 32.2086 12.9232 32.4081C9.77582 34.1274 6.6429 35.8717 3.52386 37.6383C2.97735 37.9478 2.76608 37.7683 2.55912 37.3022C1.58747 35.1136 0.754882 32.8845 0.35509 30.4475Z" fill="#00607D"/>
<path d="M30.6521 0.240845C33.8065 0.654675 36.7229 1.55833 39.459 2.95538C43.189 4.85983 46.299 7.44248 48.8124 10.7441C50.8871 13.4695 52.304 16.4618 53.165 19.69C53.8355 22.2037 54.1418 24.8004 53.9375 27.4002C53.6687 30.8212 52.9017 34.1377 51.3133 37.2477C51.0461 37.7708 50.975 37.9645 50.294 37.5677C47.4213 35.8939 44.4908 34.3101 41.5527 32.7432C40.8944 32.3922 40.7135 32.1511 41.0307 31.4011C42.5979 27.6948 42.5596 23.9688 40.9083 20.2813C39.4385 16.9991 37.0182 14.5499 33.7268 12.9312C32.245 12.2024 30.6774 11.638 28.9787 11.5433C28.4801 11.5155 28.2098 11.3475 28.2143 10.7761C28.2408 7.39601 28.245 4.0155 28.2105 0.635583C28.2046 0.0482616 28.3167 -0.0599294 28.942 0.0260234C29.5673 0.0260234 30.0301 0.142117 30.6521 0.240845Z" fill="#00607D"/>
<path d="M14.1107 34.5804C14.369 34.4455 14.4479 34.3138 14.6905 34.6388C16.3605 36.8752 18.5819 38.4902 21.2047 39.5377C23.7155 40.5405 26.3363 40.8396 29.0623 40.453C31.6323 40.0884 33.92 39.1785 36.0006 37.7025C37.1339 36.8987 38.1234 35.9688 38.9421 34.8772C39.2555 34.4592 39.5045 34.3538 40.0006 34.6376C42.8642 36.2754 45.7487 37.8793 48.6197 39.5052C48.9717 39.7045 49.4723 39.7424 49.4889 40.1673C49.501 40.4766 49.1922 40.7715 48.9549 41.088C46.7563 44.021 44.0562 46.4324 40.8374 48.302C38.6147 49.593 36.2385 50.549 33.7338 51.1848C30.7563 51.9407 27.6987 52.1373 24.6517 51.9125C21.3059 51.6657 18.0774 50.8167 15.0648 49.3583C12.8663 48.2941 10.8386 46.9866 8.97111 45.4105C7.30554 44.0049 5.95519 42.3769 4.64446 40.6915C4.29227 40.2386 4.1862 40.0607 4.86769 39.6982C7.96009 38.0532 10.9905 36.3003 14.1107 34.5804Z" fill="#00607D"/>
<path d="M24.6103 33.6028C22.9595 33.0985 21.8277 32.0199 20.9841 30.7475C19.1578 27.993 19.1541 24.0947 20.9942 21.3256C23.0828 18.1825 26.5428 17.4045 29.7941 18.1468C31.5169 18.5401 32.9872 19.3524 34.0483 20.8011C34.3862 21.2623 34.2745 21.4619 33.9404 21.7901C33.5537 22.1698 33.2066 22.5923 32.8817 23.0237C32.3363 23.7479 32.1427 23.7851 31.5842 23.1021C30.8653 22.2229 29.9085 21.6869 28.8402 21.3543C26.8129 20.7231 24.504 22.0191 23.7446 23.7986C22.7493 26.1307 23.1046 27.8847 24.6954 29.4991C26.5193 31.3501 29.095 31.2446 30.9917 29.5855C32.2221 28.5092 32.2033 28.4788 33.336 29.618C33.6371 29.9208 33.8907 30.2672 34.1734 30.5875C34.3575 30.7962 34.3538 30.9819 34.1628 31.1881C32.6392 32.8324 30.8008 33.9208 28.4715 34.0535C27.1886 34.1266 25.8924 34.143 24.6103 33.6028Z" fill="#00607D"/>
</svg>
