<svg width="20" height="23" viewBox="0 0 20 23" fill="none" xmlns="http://www.w3.org/2000/svg">
<path d="M10.4691 12.28L19.7733 1.86486C19.9278 1.66319 20.0085 1.40379 19.9993 1.13848C19.9901 0.873171 19.8918 0.6215 19.7239 0.433759C19.556 0.246018 19.331 0.136034 19.0937 0.125786C18.8565 0.115538 18.6245 0.205782 18.4442 0.378482L9.90354 9.92923L1.60801 0.652565C1.43139 0.456225 1.19246 0.346021 0.943424 0.346021C0.694384 0.346021 0.455462 0.456225 0.278839 0.652565C0.190485 0.750563 0.120356 0.867156 0.0724964 0.995616C0.0246391 1.12408 0 1.26186 0 1.40102C0 1.54019 0.0246391 1.67797 0.0724964 1.80643C0.120356 1.93489 0.190485 2.05148 0.278839 2.14948L9.33793 12.28C9.48812 12.4474 9.69151 12.5414 9.90354 12.5414C10.1156 12.5414 10.319 12.4474 10.4691 12.28Z" fill="white" fill-opacity="0.7"/>
<path d="M10.4691 22.3791L19.7733 11.964C19.9278 11.7623 20.0085 11.5029 19.9993 11.2376C19.9901 10.9723 19.8918 10.7206 19.7239 10.5329C19.556 10.3451 19.331 10.2352 19.0937 10.2249C18.8565 10.2147 18.6245 10.3049 18.4442 10.4776L9.90354 20.0284L1.60801 10.7517C1.43139 10.5553 1.19246 10.4451 0.943424 10.4451C0.694382 10.4451 0.45546 10.5553 0.278839 10.7517C0.103266 10.9492 0.00471687 11.2164 0.00471687 11.4949C0.00471687 11.7734 0.103266 12.0406 0.278839 12.2381L9.33793 22.3791C9.48812 22.5465 9.69151 22.6405 9.90354 22.6405C10.1156 22.6405 10.319 22.5465 10.4691 22.3791Z" fill="white" fill-opacity="0.7"/>
</svg>
