<svg width="318" height="398" viewBox="0 0 318 398" fill="none" xmlns="http://www.w3.org/2000/svg">
<g filter="url(#filter0_d_118_774)">
<path d="M150.358 54.9404C145.376 59.2393 141.148 63.3747 136.397 66.7434C134.756 67.9124 131.743 67.6987 129.543 67.2211C98.4856 60.4586 71.3404 67.837 49.4809 91.9583C22.5908 121.623 23.8667 165.705 51.9475 195.156C54.645 197.984 56.006 200.812 56.5528 204.81C57.4762 211.597 59.4325 218.234 61.0972 225.562C33.709 209.397 16.1387 186.357 12.1896 154.078C5.22714 97.2502 47.476 53.5201 96.4443 47.3735C114.877 45.0355 132.618 47.3357 150.358 54.9404Z" fill="#00607D"/>
<path d="M258.222 61.2256C289.316 76.3847 310.374 116.847 305.829 153.01C300.167 198.085 264.832 233.23 220.979 238.082C202.668 240.106 185.195 237.742 167.576 230.527C172.363 225.99 176.677 221.603 181.367 217.681C182.364 216.839 184.733 217.38 186.361 217.757C219.278 225.374 247.797 217.518 270.276 190.996C294.14 162.839 293.156 120.856 268.587 93.2659C265.622 89.9349 263.982 86.5537 263.228 82.0788C262.062 75.1026 259.972 68.2898 258.222 61.2256Z" fill="#00607D"/>
<path d="M75.0952 46.4307C86.5657 28.368 101.888 15.7731 120.904 7.67815C162.704 -10.108 212.96 3.84441 239.959 40.8623C259.765 68.013 263.362 104.377 249 135.135C244.589 130.635 240.166 126.362 236.071 121.761C235.293 120.894 235.427 118.619 235.852 117.224C249.498 71.1428 217.079 27.1235 174.04 19.9085C148.402 15.6096 125.412 21.6054 105.412 39.0773C104.343 40.0201 103.055 41.0131 101.742 41.2771C93.0908 43.062 84.3785 44.6584 75.0952 46.4307Z" fill="#00607D"/>
<path d="M242.438 241.916C227.31 263.85 207.796 277.84 183.178 283.232C144.003 291.818 109.519 281.976 82.9932 250.451C58.9465 221.854 54.6451 188.809 68.4972 153.513C68.8252 152.671 69.2991 151.879 69.7487 150.974C73.9894 155.612 78.1572 159.986 82.0333 164.599C82.8717 165.592 83.2241 167.717 82.8353 169.011C69.7973 211.949 97.9997 257.678 144.1 266.389C168.609 271.015 190.942 265.119 210.858 249.445C212.996 247.761 215.949 246.906 218.659 246.34C226.277 244.719 233.957 243.462 242.438 241.916Z" fill="#00607D"/>
<path d="M123.638 93.4798C140.795 68.114 163.141 53.5457 191.416 48.8572C197.832 47.7888 204.418 47.5876 210.931 47.6379C213.033 47.6504 215.852 49.1714 217.079 50.9437C220.53 55.9213 223.337 61.4018 226.751 67.297C214.612 67.297 203.385 66.3165 192.388 67.5484C178.208 69.1322 165.972 76.3095 154.83 85.4603C152.715 87.1949 149.799 88.1502 147.102 88.7661C139.702 90.4505 132.229 91.7703 123.638 93.4798Z" fill="#00607D"/>
<path d="M108.34 178.023C78.1693 158.502 61.2309 131.528 60.8785 94.3841C60.842 90.5126 62.0328 87.961 65.2893 86.2515C70.4291 83.549 75.5568 80.7836 80.0527 78.3828C80.0527 86.5029 79.6031 94.3338 80.1378 102.089C81.365 119.825 88.6556 134.833 100.26 147.805C101.815 149.553 102.787 152.129 103.346 154.493C105.144 162.097 106.627 169.79 108.34 178.023Z" fill="#00607D"/>
<path d="M195.001 192.818C182.424 212.389 165.523 226.015 144.088 233.079C135.34 235.958 126.032 236.976 116.967 238.824C111.475 239.942 106.833 238.107 103.212 233.959C99.3849 229.572 95.9097 224.871 92.2766 220.296C92.6047 219.843 92.9449 219.391 93.273 218.938C96.0434 219.328 98.8017 219.831 101.584 220.082C124.926 222.257 145.838 216.211 164.052 200.612C165.972 198.965 168.755 198.11 171.27 197.545C179.022 195.835 186.835 194.427 195.001 192.818Z" fill="#00607D"/>
<path d="M238.513 206.041C238.513 197.632 239.194 189.524 238.367 181.58C236.666 165.202 229.692 151.124 218.889 139.057C217.577 137.586 215.998 135.927 215.597 134.091C213.75 125.733 212.279 117.286 210.603 108.5C236.521 124.928 252.499 147.868 257.347 179.368C259.133 190.932 255.44 197.556 245.913 202.069C243.313 203.313 240.834 204.796 238.513 206.041Z" fill="#00607D"/>
<path d="M140.722 172.594C170.747 176.729 196.398 169.74 218.549 147.567C222.061 153.048 225.39 158.239 228.914 163.745C217.383 174.919 204.564 182.976 189.812 186.886C179.885 189.513 169.508 190.48 159.265 191.499C156.774 191.75 153.299 189.953 151.561 187.916C147.527 183.19 144.283 177.747 140.722 172.594Z" fill="#00607D"/>
<path d="M130.722 123.886C124.404 155.323 133.019 179.871 154.878 200.825C149.678 203.867 144.829 206.884 139.775 209.486C138.839 209.963 136.64 209.171 135.741 208.229C118.389 189.952 109.458 168.006 109.409 142.326C109.409 140.629 109.92 138.215 111.05 137.373C117.004 132.949 123.225 128.951 130.722 123.886Z" fill="#00607D"/>
<path d="M188.548 160.338C193.069 130.208 184.915 105.66 163.384 85.0201C169.253 81.6891 174.708 78.5844 180.48 75.3037C199.023 94.8245 208.926 117.513 208.111 144.777C208.075 146.172 206.945 148.007 205.791 148.824C200.14 152.809 194.32 156.529 188.548 160.338Z" fill="#00607D"/>
<path d="M179.144 115.212C148.341 109.418 122.897 116.532 100.6 138.227C97.5743 133.074 94.573 128.297 91.997 123.282C91.5596 122.427 92.5317 120.114 93.4916 119.285C113.261 102.165 136.105 94.0449 161.877 94.799C163.165 94.8367 164.878 95.4526 165.62 96.4331C169.921 102.127 174.004 108.022 179.144 115.212Z" fill="#00607D"/>
<path d="M18.5811 363.97L14.2432 389.486H4L16.2968 317.424H40.8903C55.0704 317.424 63.1873 326.16 60.7206 340.565C58.339 354.555 47.3667 363.97 33.6726 363.97H18.5811ZM24.7295 328.033L20.3916 353.386H35.4709C42.7615 353.386 49.1529 348.044 50.4652 340.577C51.6925 333.111 47.0265 328.033 39.0676 328.033H24.7295Z" fill="#00607D"/>
<path d="M59.0681 389.498L71.3649 317.436H96.2015C110.297 317.436 118.498 326.172 116.032 340.577C114.233 351.261 107.344 359.318 98.0848 362.536L110.625 389.498H98.3279L86.8574 363.982H73.6614L69.3235 389.498H59.0681ZM79.8098 328.032L75.4719 353.385H90.7943C98.0119 353.385 104.403 348.043 105.716 340.577C106.943 333.11 102.277 328.032 94.4031 328.032H79.8098Z" fill="#00607D"/>
<path d="M158.9 317.008C177.746 317.008 188.318 332.104 184.721 353.46C181.027 374.917 165.292 390 146.446 390C127.599 390 116.858 374.904 120.552 353.46C124.149 332.092 140.042 317.008 158.9 317.008ZM130.783 353.46C128.158 368.896 135.376 379.58 148.244 379.58C161.112 379.58 171.853 368.896 174.466 353.46C177.09 338.024 170.043 327.428 157.09 327.428C144.222 327.428 133.408 338.2 130.783 353.46Z" fill="#00607D"/>
<path d="M220.372 317.424H231.356L246.764 389.486H235.779L231.842 371.172H201.514L191.356 389.486H180.371L220.372 317.424ZM229.631 360.928L223.398 331.678L207.164 360.928H229.631Z" fill="#00607D"/>
<path d="M251.102 389.498L263.398 317.436H284.869C306.838 317.436 316.996 330.408 313.059 353.473C309.122 376.363 294.699 389.511 273.313 389.511H251.102V389.498ZM271.843 328.032L263.155 378.902H275.124C289.79 378.902 300.046 369.487 302.743 353.461C305.526 337.183 298.478 328.032 283.071 328.032H271.843Z" fill="#00607D"/>
</g>
<defs>
<filter id="filter0_d_118_774" x="0" y="0" width="317.89" height="398" filterUnits="userSpaceOnUse" color-interpolation-filters="sRGB">
<feFlood flood-opacity="0" result="BackgroundImageFix"/>
<feColorMatrix in="SourceAlpha" type="matrix" values="0 0 0 0 0 0 0 0 0 0 0 0 0 0 0 0 0 0 127 0" result="hardAlpha"/>
<feOffset dy="4"/>
<feGaussianBlur stdDeviation="2"/>
<feComposite in2="hardAlpha" operator="out"/>
<feColorMatrix type="matrix" values="0 0 0 0 0 0 0 0 0 0 0 0 0 0 0 0 0 0 0.05 0"/>
<feBlend mode="normal" in2="BackgroundImageFix" result="effect1_dropShadow_118_774"/>
<feBlend mode="normal" in="SourceGraphic" in2="effect1_dropShadow_118_774" result="shape"/>
</filter>
</defs>
</svg>
