<?xml version="1.0" standalone="no"?>
<!DOCTYPE svg PUBLIC "-//W3C//DTD SVG 20010904//EN"
 "http://www.w3.org/TR/2001/REC-SVG-20010904/DTD/svg10.dtd">
<svg version="1.0" xmlns="http://www.w3.org/2000/svg"
 width="108" height="42" viewBox="0 0 1368.000000 402.000000"
 preserveAspectRatio="xMidYMid meet">

<g transform="translate(0.000000,402.000000) scale(0.100000,-0.100000)"
fill="#FFFF" stroke="none">
<path d="M3817 3948 c-4 -24 -9 -74 -12 -113 -4 -38 -9 -78 -11 -87 -5 -17 66
-18 1384 -18 l1389 0 6 74 c4 40 10 99 13 130 l7 56 -1385 0 -1386 0 -5 -42z"/>
<path d="M216 3673 c-33 -261 -189 -1802 -193 -1914 -18 -470 126 -834 407
-1026 177 -120 461 -206 815 -245 161 -18 731 -17 880 1 351 42 628 122 816
237 336 204 563 583 644 1074 12 72 205 1874 205 1913 0 4 -227 7 -505 7
l-504 0 -5 -32 c-3 -18 -46 -424 -96 -903 -49 -478 -99 -917 -110 -974 -24
-121 -72 -255 -121 -337 -44 -75 -159 -196 -233 -247 -80 -54 -206 -111 -296
-133 -101 -25 -317 -26 -410 -1 -300 80 -470 332 -470 698 0 48 43 495 95 991
52 497 95 911 95 920 0 17 -31 18 -504 18 l-504 0 -6 -47z"/>
<path d="M6566 3698 c-3 -13 -17 -138 -31 -278 -14 -140 -28 -272 -31 -292
l-6 -38 -879 0 c-733 0 -879 -2 -879 -14 0 -21 -59 -588 -65 -623 l-6 -33 801
0 c755 0 800 -1 799 -17 0 -10 -14 -153 -32 -318 l-32 -300 -800 -5 -800 -5
-3 -30 c-2 -16 -31 -293 -65 -615 l-62 -585 -507 -3 -507 -2 -6 -33 c-3 -17
-14 -122 -25 -232 -11 -110 -22 -215 -25 -233 l-6 -32 1388 2 1388 3 27 255
c15 140 27 261 27 268 1 9 110 12 511 12 l510 0 1 28 c0 50 125 1201 130 1206
2 3 205 0 449 -6 l445 -10 54 -36 c64 -43 112 -105 142 -182 21 -54 21 -61 14
-527 l-7 -473 1005 0 1005 0 5 33 c3 17 54 493 112 1057 58 564 109 1032 113
1042 5 11 191 -310 614 -1055 l606 -1072 691 -3 690 -2 5 32 c8 47 326 3088
326 3116 l0 22 -469 0 -469 0 -6 -37 c-3 -21 -53 -490 -111 -1043 -58 -553
-107 -1009 -108 -1014 -4 -12 30 -73 -602 1076 l-560 1018 -721 0 -722 0 -5
-22 c-3 -13 -74 -683 -158 -1490 -85 -806 -156 -1465 -158 -1462 -2 2 -7 201
-12 441 -8 458 -15 530 -57 626 -23 53 -83 121 -132 152 -68 43 -238 100 -353
120 -31 5 -38 10 -35 26 2 16 26 27 108 55 195 65 348 161 476 297 81 85 126
158 160 255 87 250 35 512 -134 681 -139 139 -414 265 -667 306 -75 13 -275
15 -1217 15 l-1128 0 -4 -22z m1772 -573 c75 -18 172 -65 231 -113 101 -82
133 -168 107 -292 -28 -131 -94 -215 -224 -283 -130 -68 -142 -70 -599 -74
-387 -4 -413 -3 -413 13 0 24 69 691 76 732 l5 32 377 0 c297 0 390 -3 440
-15z"/>
</g>
</svg>